<svg version="1.1" width="122" height="79" viewBox="-1 4 122 79" xmlns="http://www.w3.org/2000/svg" xmlns:xlink="http://www.w3.org/1999/xlink">
  <defs>
    <linearGradient id="grad_1" x1="13.0181" y1="75.0693" x2="133.0176" y2="75.0693" gradientUnits="userSpaceOnUse">
      <stop offset="0" stop-color="#27AAE1"/>
      <stop offset="1" stop-color="#115489"/>
    </linearGradient>
    <linearGradient id="grad_2" x1="17.5205" y1="75.0693" x2="128.5137" y2="75.0693" gradientUnits="userSpaceOnUse">
      <stop offset="0" stop-color="#2F7EBA"/>
      <stop offset="0.506" stop-color="#3F9DD6"/>
      <stop offset="1" stop-color="#3E97D1"/>
    </linearGradient>
  </defs>
  <!-- Exported by Scratch - http://scratch.mit.edu/ -->
  <g id="ID0.5625496208667755" transform="matrix(1, 0, 0, 1, -13, -42)">
    <path id="ID0.2795985471457243" fill="url(#grad_1)" d="M 106.874 42.787 L 39.161 42.787 C 24.745 42.787 13.018 54.515 13.018 68.930 C 13.018 83.347 24.746 95.074 39.161 95.074 L 106.874 95.074 C 121.289 95.074 133.018 83.346 133.018 68.930 C 133.018 54.515 121.289 42.787 106.874 42.787 Z "/>
    <path id="ID0.07993003353476524" fill="url(#grad_2)" d="M 128.514 68.930 C 128.514 80.882 118.826 90.571 106.874 90.571 L 39.161 90.571 C 27.209 90.571 17.520 80.882 17.520 68.930 L 17.520 68.930 C 17.520 56.979 27.209 47.290 39.161 47.290 L 106.874 47.290 C 118.826 47.290 128.514 56.979 128.514 68.930 L 128.514 68.930 Z "/>
  </g>
  <text id="ID0.0023967158049345016" fill="#000000" x="212" y="176.25" text-anchor="start" font-family="Helvetica" font-size="22" transform="matrix(1, 0, 0, 1, 20, 12.15)">START</text>
</svg>