<svg version="1.1" x="0px" y="0px" width="800px" height="600px" viewBox="-314.084 -204.796 800 600" enable-background="new -314.084 -204.796 800 600" xml:space="preserve" xmlns="http://www.w3.org/2000/svg" xmlns:xlink="http://www.w3.org/1999/xlink" xmlns:a="http://ns.adobe.com/AdobeSVGViewerExtensions/3.0/">
  <defs/>
  <g>
    <path id="ID0.4675603983923793_1_" fill="#FAA51D" stroke="#231F20" stroke-width="1.2" d="M99.739,16.803&#xD;&#xA;&#x9;c-2.832-0.263-8.735-0.581-11.986-0.425c-8.694,0.414-16.962,3.545-16.962,3.545L46.851,4.3l4.109,34.768&#xD;&#xA;&#x9;c1.188-1.439-19.41,23.545-6.397,44.546c13.021,21.012,40.886,30.375,75.374,23.523c34.49-6.857,42.717-26.722,40.432-37.23&#xD;&#xA;&#x9;c-2.284-10.508-15.304-14.387-15.304-14.387s-0.165-8.238-6.12-18.334c-3.542-6.01-15.352-14.787-15.352-14.787l-5.258-21.243&#xD;&#xA;&#x9;l-13.703,13.248L99.739,16.803L99.739,16.803z"/>
    <path id="ID0.876089540310204_1_" fill="#FFFFFF" d="M143.341,55.255l-4.564-3.795l-16.762,4.893c0,0,0,6.288-8.03,8.03&#xD;&#xA;&#x9;c-8.036,1.75-20.616-4.187-20.616-4.187l-14.316,6.284c0,0-15.516,1.705-16.07,11.182c-1.238,21.062,24.604,29.842,34.396,30.401&#xD;&#xA;&#x9;c5.343,0.308,15.144-0.622,22.577-2.099c32.645-5.947,41.469-25.596,39.188-36.107c-2.284-10.508-14.672-13.232-14.672-13.232&#xD;&#xA;&#x9;L143.341,55.255L143.341,55.255z"/>
    <path id="ID0.44282719027251005_1_" fill="none" stroke="#231F20" stroke-width="1.2" d="M22.437,75.647&#xD;&#xA;&#x9;c0,0,7.553,0.688,10.986,0.493c3.43-0.196,10.1-1.079,10.1-1.079"/>
    <path id="ID0.893105489667505_1_" fill="none" stroke="#231F20" stroke-width="1.2" d="M152.97,65.563c0,0,8.365-1.367,12.613-2.85&#xD;&#xA;&#x9;c4.992-1.731,8.354-4.68,8.354-4.68"/>
    <path id="ID0.03574043000116944_1_" fill="none" stroke="#231F20" stroke-width="1.2" d="M43.886,67.839&#xD;&#xA;&#x9;c0,0-4.384-3.269-11.248-6.308c-7.603-3.367-11.778-4.235-11.778-4.235"/>
    <path id="ID0.6674723788164556_1_" fill="none" stroke="#231F20" stroke-width="1.2" d="M153.818,76.506&#xD;&#xA;&#x9;c0,0,5.014,2.029,10.175,2.547c5.095,0.508,8.544,0.202,8.544,0.202"/>
    <path id="ID0.12165586883202195_1_" fill="none" stroke="#000000" stroke-linecap="round" d="M99.079,16.906&#xD;&#xA;&#x9;c5.222,1.287,7.147,2.701,7.147,2.701"/>
    <path id="ID0.178104005753994_1_" fill="none" stroke="#000000" d="M65.146,15.935l11.141,8.014"/>
    <path id="ID0.7735752793960273_1_" fill="#FFFFFF" stroke="#231F20" d="M134.919,37.417c5.377,8.236,5.577,17.638,0.445,20.991&#xD;&#xA;&#x9;c-5.137,3.356-13.656-0.609-19.041-8.851c-5.394-8.238-5.584-17.633-0.448-20.991C121.007,25.214,129.537,29.175,134.919,37.417&#xD;&#xA;&#x9;L134.919,37.417z"/>
    <path id="ID0.19106501014903188_1_" fill="#231F20" d="M133.539,50.578c0,1.985-1.475,3.597-3.311,3.597&#xD;&#xA;&#x9;c-1.826,0-3.315-1.612-3.315-3.597c0-1.986,1.489-3.602,3.315-3.602C132.064,46.976,133.539,48.591,133.539,50.578"/>
    <path id="ID0.06283409334719181_1_" fill="#FFFFFF" stroke="#231F20" d="M90.834,43.4c5.381,8.238,4.815,18.136-1.253,22.095&#xD;&#xA;&#x9;c-6.072,3.971-15.356,0.5-20.735-7.738c-5.384-8.238-4.825-18.132,1.247-22.099C76.167,31.693,85.449,35.158,90.834,43.4&#xD;&#xA;&#x9;L90.834,43.4z"/>
    <path id="ID0.716460831463337_1_" fill="#231F20" d="M87.546,54.227c0,1.988-1.477,3.6-3.313,3.6c-1.824,0-3.314-1.615-3.314-3.6&#xD;&#xA;&#x9;c0-1.985,1.49-3.599,3.314-3.599C86.066,50.628,87.546,52.242,87.546,54.227"/>
    <path id="ID0.5430324394255877_1_" fill="#5E4A42" stroke="#000000" d="M112.716,60.514c3.409,0,8.376-0.521,8.637,1.047&#xD;&#xA;&#x9;c0.264,1.572-3.143,7.729-5.494,7.99c-2.359,0.262-11.264-4.327-11.393-7.207C104.331,59.465,109.57,60.514,112.716,60.514&#xD;&#xA;&#x9;L112.716,60.514z"/>
    <path id="ID0.5547774969600141_1_" fill="none" stroke="#231F20" stroke-width="1.2" d="M88.825,73.956&#xD;&#xA;&#x9;c0,0,19.027,5.616,26.144,7.166c7.113,1.549,19.955,3.098,19.955,3.098s-14.693,18.84-31.865,14.057&#xD;&#xA;&#x9;C85.886,93.5,86.197,82.672,88.825,73.956L88.825,73.956z"/>
    <path fill="#FAA51D" stroke="#000000" stroke-width="1.2" d="M87.473,175.705c-1.242,0-2.502-0.309-3.662-0.96l-16.055-9.005&#xD;&#xA;&#x9;c-2.768-1.552-4.259-4.678-3.724-7.805c0.534-3.128,2.979-5.581,6.105-6.125l14.704-2.562l-7.399-4.644&#xD;&#xA;&#x9;c-3.509-2.201-4.568-6.83-2.366-10.339c2.201-3.508,6.83-4.567,10.339-2.366l23.953,15.031c2.631,1.65,3.972,4.751,3.373,7.798&#xD;&#xA;&#x9;c-0.599,3.048-3.013,5.41-6.072,5.943l-13.726,2.391c2.187,2.322,2.72,5.881,1.077,8.81&#xD;&#xA;&#x9;C92.646,174.325,90.098,175.705,87.473,175.705L87.473,175.705z"/>
    <path id="ID0.7152078151702881_1_" fill="#FAA51D" stroke="#000000" d="M43.701,140.637c-4.447,0.8-9.974,1.209-15.596-0.972&#xD;&#xA;&#x9;c-12.576-4.88-20.854-17.658-26.116-11.557c-5.269,6.105,3.392,28.541,26.884,27.55c8.098-0.337,14.661-2.817,19.926-4.979&#xD;&#xA;&#x9;c1.377-0.573,12.84-6.16,14.67-13.58c1.827-7.421-1.552-7.814-3.25-8.099C58.519,128.717,49.989,139.504,43.701,140.637&#xD;&#xA;&#x9;L43.701,140.637z"/>
    <path id="ID0.4691764716990292_1_" fill="#FFFFFF" d="M3.124,128.179c-3.021,2.353-2.025,10.6,1.967,15.941&#xD;&#xA;&#x9;c3.993,5.35,7.806,6.916,10.814,8.48c3.307,0.786-2.804-3.661-0.366-8.023c2.43-4.354,9.26-5.313,9.26-5.313&#xD;&#xA;&#x9;s-7.602-4.955-12.029-8.014C8.559,128.302,6.447,125.931,3.124,128.179L3.124,128.179z"/>
    <path id="ID0.26425604708492756_1_" fill="#FAA51D" stroke="#231F20" stroke-width="1.2" d="M88.096,141.586&#xD;&#xA;&#x9;c2.185-1.678,4.408-4.418,7.267-8.668c2.383-3.543,4.965-10.257,4.965-10.257c1.608-4.636,3.557-12.093-3.498-13.417&#xD;&#xA;&#x9;c-2.855-0.535-7.501-0.18-14.104-1.427c-6.607-1.253-12.501-4.638-17.501,4.106c-4.998,8.748-17.636,15.209-1.942,30.458&#xD;&#xA;&#x9;L88.096,141.586z"/>
    <path fill="#FAA51D" stroke="#000000" stroke-width="1.2" d="M64.208,189.204H50.086c-0.647,0-1.293-0.084-1.919-0.25l-11.337-3&#xD;&#xA;&#x9;c-2.799-0.74-4.921-3.025-5.453-5.871s0.621-5.744,2.963-7.446l24.416-17.744l-1.544-18.472c-0.346-4.128,2.721-7.754,6.849-8.099&#xD;&#xA;&#x9;c4.134-0.344,7.754,2.721,8.099,6.849l1.896,22.681c0.219,2.613-0.943,5.15-3.064,6.692l-13.293,9.66h6.51&#xD;&#xA;&#x9;c4.143,0,7.5,3.357,7.5,7.5S68.351,189.204,64.208,189.204L64.208,189.204z"/>
    <path id="ID0.203311821911484_1_" fill="#FFFFFF" d="M96.372,129.49c0,0,4.542-4.892-4.54-9.778&#xD;&#xA;&#x9;c-9.082-4.886-13.265-0.031-16.07,2.797c-4.862,4.883,6.331,12.158,6.331,12.158l5.841,5.892c0,0,3.195-3.028,4.596-5.478&#xD;&#xA;&#x9;C94.134,132.848,96.372,129.49,96.372,129.49"/>
    <ellipse transform="matrix(0.7127 0.7015 -0.7015 0.7127 113.218 -7.4148)" fill="#FAA51D" cx="65.66" cy="134.497" rx="9.811" ry="8.535"/>
    <path fill="#FAA51D" stroke="#000000" stroke-width="1.2" d="M97.573,149.231c-0.787,0-1.587-0.145-2.365-0.448l-18.194-7.113&#xD;&#xA;&#x9;c-2.859-1.118-4.547-4.085-4.046-7.114l3.42-20.676c0.586-3.542,3.929-5.94,7.474-5.353c3.542,0.586,5.938,3.932,5.353,7.474&#xD;&#xA;&#x9;l-2.561,15.479l13.289,5.195c3.343,1.307,4.994,5.077,3.687,8.421C102.625,147.662,100.171,149.231,97.573,149.231L97.573,149.231z"/>
  </g>
</svg>