<svg version="1.1" x="0px" y="0px" width="800px" height="600px" viewBox="-315.044 -204.796 800 600" enable-background="new -315.044 -204.796 800 600" xml:space="preserve" xmlns="http://www.w3.org/2000/svg" xmlns:xlink="http://www.w3.org/1999/xlink" xmlns:a="http://ns.adobe.com/AdobeSVGViewerExtensions/3.0/">
  <defs/>
  <g>
    <path fill="#FAA51D" stroke="#000000" stroke-width="1.2" d="M54.407,146.904c-3.422,0-6.288-2.674-6.483-6.133l-1.215-21.494&#xD;&#xA;&#x9;c-0.16-2.822,1.522-5.424,4.161-6.436l17.565-6.738c3.349-1.286,7.111,0.389,8.396,3.74c1.286,3.352-0.389,7.111-3.74,8.396&#xD;&#xA;&#x9;l-13.136,5.04l0.946,16.757c0.203,3.585-2.538,6.654-6.122,6.856C54.655,146.901,54.53,146.904,54.407,146.904L54.407,146.904z"/>
    <path id="ID0.4675603983923793_1_" fill="#FAA51D" stroke="#231F20" stroke-width="1.2" d="M97.779,16.803&#xD;&#xA;&#x9;c-2.832-0.263-8.735-0.581-11.986-0.425c-8.694,0.414-16.962,3.545-16.962,3.545L44.891,4.3L49,39.068&#xD;&#xA;&#x9;c1.188-1.439-19.41,23.545-6.397,44.546c13.021,21.012,40.886,30.375,75.374,23.523c34.49-6.857,42.717-26.722,40.432-37.23&#xD;&#xA;&#x9;c-2.284-10.508-15.304-14.387-15.304-14.387s-0.165-8.238-6.12-18.334c-3.542-6.01-15.352-14.787-15.352-14.787l-5.258-21.243&#xD;&#xA;&#x9;l-13.703,13.248L97.779,16.803L97.779,16.803z"/>
    <path id="ID0.876089540310204_1_" fill="#FFFFFF" d="M141.381,55.255l-4.564-3.795l-16.762,4.893c0,0,0,6.288-8.03,8.03&#xD;&#xA;&#x9;c-8.036,1.75-20.616-4.187-20.616-4.187l-14.316,6.284c0,0-15.516,1.705-16.07,11.182c-1.238,21.062,24.604,29.842,34.396,30.401&#xD;&#xA;&#x9;c5.343,0.308,15.144-0.622,22.577-2.099c32.645-5.947,41.469-25.596,39.188-36.107c-2.284-10.508-14.672-13.232-14.672-13.232&#xD;&#xA;&#x9;L141.381,55.255L141.381,55.255z"/>
    <path id="ID0.44282719027251005_1_" fill="none" stroke="#231F20" stroke-width="1.2" d="M20.477,75.647&#xD;&#xA;&#x9;c0,0,7.553,0.688,10.986,0.493c3.43-0.196,10.1-1.079,10.1-1.079"/>
    <path id="ID0.893105489667505_1_" fill="none" stroke="#231F20" stroke-width="1.2" d="M151.01,65.563c0,0,8.365-1.367,12.613-2.85&#xD;&#xA;&#x9;c4.992-1.731,8.354-4.68,8.354-4.68"/>
    <path id="ID0.03574043000116944_1_" fill="none" stroke="#231F20" stroke-width="1.2" d="M41.926,67.839&#xD;&#xA;&#x9;c0,0-4.384-3.269-11.248-6.308C23.076,58.165,18.9,57.296,18.9,57.296"/>
    <path id="ID0.6674723788164556_1_" fill="none" stroke="#231F20" stroke-width="1.2" d="M151.858,76.506&#xD;&#xA;&#x9;c0,0,5.014,2.029,10.175,2.547c5.095,0.508,8.544,0.202,8.544,0.202"/>
    <path id="ID0.12165586883202195_1_" fill="none" stroke="#000000" stroke-linecap="round" d="M97.119,16.906&#xD;&#xA;&#x9;c5.222,1.287,7.147,2.701,7.147,2.701"/>
    <path id="ID0.178104005753994_1_" fill="none" stroke="#000000" d="M63.186,15.935l11.141,8.014"/>
    <path id="ID0.7735752793960273_1_" fill="#FFFFFF" stroke="#231F20" d="M132.959,37.417c5.377,8.236,5.577,17.638,0.445,20.991&#xD;&#xA;&#x9;c-5.137,3.356-13.656-0.609-19.041-8.851c-5.394-8.238-5.584-17.633-0.448-20.991C119.047,25.214,127.577,29.175,132.959,37.417&#xD;&#xA;&#x9;L132.959,37.417z"/>
    <path id="ID0.19106501014903188_1_" fill="#231F20" d="M131.579,50.578c0,1.985-1.475,3.597-3.311,3.597&#xD;&#xA;&#x9;c-1.826,0-3.315-1.612-3.315-3.597c0-1.986,1.489-3.602,3.315-3.602C130.104,46.976,131.579,48.591,131.579,50.578"/>
    <path id="ID0.06283409334719181_1_" fill="#FFFFFF" stroke="#231F20" d="M88.875,43.4c5.381,8.238,4.815,18.136-1.253,22.095&#xD;&#xA;&#x9;c-6.072,3.971-15.356,0.5-20.735-7.738c-5.384-8.238-4.825-18.132,1.247-22.099C74.208,31.693,83.489,35.158,88.875,43.4&#xD;&#xA;&#x9;L88.875,43.4z"/>
    <path id="ID0.716460831463337_1_" fill="#231F20" d="M85.586,54.227c0,1.988-1.477,3.6-3.313,3.6c-1.824,0-3.314-1.615-3.314-3.6&#xD;&#xA;&#x9;c0-1.985,1.49-3.599,3.314-3.599C84.106,50.628,85.586,52.242,85.586,54.227"/>
    <path id="ID0.5430324394255877_1_" fill="#5E4A42" stroke="#000000" d="M110.756,60.514c3.409,0,8.376-0.521,8.637,1.047&#xD;&#xA;&#x9;c0.264,1.572-3.143,7.729-5.494,7.99c-2.359,0.262-11.264-4.327-11.393-7.207C102.371,59.465,107.61,60.514,110.756,60.514&#xD;&#xA;&#x9;L110.756,60.514z"/>
    <path id="ID0.5547774969600141_1_" fill="none" stroke="#231F20" stroke-width="1.2" d="M86.865,73.956&#xD;&#xA;&#x9;c0,0,19.027,5.616,26.144,7.166c7.113,1.549,19.955,3.098,19.955,3.098s-14.693,18.84-31.865,14.057&#xD;&#xA;&#x9;C83.926,93.5,84.237,82.672,86.865,73.956L86.865,73.956z"/>
    <path fill="#FAA51D" stroke="#000000" stroke-width="1.2" d="M100.518,173.706c-0.902,0-1.819-0.164-2.711-0.51l-18.055-7.005&#xD;&#xA;&#x9;c-2.806-1.089-4.689-3.749-4.783-6.757c-0.095-3.009,1.618-5.782,4.351-7.044l10.813-4.995l-9.047-3.031&#xD;&#xA;&#x9;c-3.928-1.316-6.045-5.566-4.729-9.494c1.315-3.928,5.563-6.045,9.494-4.729l26.953,9.031c2.914,0.977,4.938,3.632,5.106,6.701&#xD;&#xA;&#x9;c0.168,3.069-1.554,5.93-4.344,7.219l-11.917,5.505l1.582,0.614c3.861,1.498,5.777,5.844,4.279,9.705&#xD;&#xA;&#x9;C106.36,171.886,103.523,173.706,100.518,173.706L100.518,173.706z"/>
    <path id="ID0.7152078151702881_1_" fill="#FAA51D" stroke="#000000" d="M44.549,140.606c-4.067,1.969-9.279,3.853-15.281,3.269&#xD;&#xA;&#x9;c-13.426-1.31-24.841-11.384-28.265-4.089c-3.427,7.3,10.96,26.57,33.315,19.283c7.707-2.508,13.359-6.666,17.846-10.167&#xD;&#xA;&#x9;c1.172-0.923,10.704-9.394,10.466-17.032c-0.24-7.639-3.601-7.106-5.313-6.923C55.605,125.132,50.298,137.82,44.549,140.606&#xD;&#xA;&#x9;L44.549,140.606z"/>
    <path id="ID0.4691764716990292_1_" fill="#FFFFFF" d="M2.116,139.547c-2.274,3.079,0.906,10.753,6.191,14.821&#xD;&#xA;&#x9;c5.287,4.075,9.381,4.556,12.7,5.251c3.396-0.134-3.688-2.77-2.516-7.628c1.166-4.847,7.484-7.612,7.484-7.612&#xD;&#xA;&#x9;s-8.656-2.723-13.744-4.475C7.383,138.201,4.709,136.487,2.116,139.547L2.116,139.547z"/>
    <path id="ID0.26425604708492756_1_" fill="#FAA51D" stroke="#231F20" stroke-width="1.2" d="M86.136,141.586&#xD;&#xA;&#x9;c2.185-1.678,4.408-4.418,7.267-8.668c2.383-3.543,4.965-10.257,4.965-10.257c1.608-4.636,3.557-12.093-3.498-13.417&#xD;&#xA;&#x9;c-2.855-0.535-7.501-0.18-14.104-1.427c-6.607-1.253-12.501-4.638-17.501,4.106c-4.998,8.748-17.636,15.209-1.942,30.458&#xD;&#xA;&#x9;L86.136,141.586z"/>
    <path fill="#FAA51D" stroke="#000000" stroke-width="1.2" d="M49.249,189.204H35.126c-1.131,0-2.247-0.256-3.266-0.748l-10.337-5&#xD;&#xA;&#x9;c-2.604-1.26-4.251-3.903-4.234-6.796c0.017-2.892,1.695-5.517,4.313-6.745l34.329-16.113l-0.7-17.71&#xD;&#xA;&#x9;c-0.164-4.139,3.059-7.626,7.198-7.79c4.141-0.166,7.627,3.06,7.79,7.198l0.896,22.681c0.119,3.013-1.578,5.804-4.308,7.085&#xD;&#xA;&#x9;l-19.042,8.938h1.481c4.143,0,7.5,3.357,7.5,7.5S53.391,189.204,49.249,189.204L49.249,189.204z"/>
    <path id="ID0.203311821911484_1_" fill="#FFFFFF" d="M94.412,129.49c0,0,4.542-4.892-4.54-9.778&#xD;&#xA;&#x9;c-9.082-4.886-13.265-0.031-16.07,2.797c-4.862,4.883,6.331,12.158,6.331,12.158l5.841,5.892c0,0,3.195-3.028,4.596-5.478&#xD;&#xA;&#x9;C92.174,132.848,94.412,129.49,94.412,129.49"/>
    <ellipse transform="matrix(0.7127 0.7015 -0.7015 0.7127 112.6548 -6.0398)" fill="#FAA51D" cx="63.7" cy="134.497" rx="9.811" ry="8.535"/>
    <path fill="#FAA51D" stroke="#000000" stroke-width="1.2" d="M118.556,142.675c-0.181,0-0.362-0.007-0.546-0.022l-19.948-1.659&#xD;&#xA;&#x9;c-2.096-0.174-3.978-1.352-5.051-3.16l-10.695-18.022c-1.832-3.087-0.814-7.075,2.272-8.907c3.086-1.831,7.075-0.815,8.907,2.272&#xD;&#xA;&#x9;l8.984,15.14l16.608,1.382c3.577,0.298,6.236,3.438,5.938,7.017C124.745,140.108,121.902,142.675,118.556,142.675L118.556,142.675z"/>
  </g>
</svg>