<svg version="1.1" x="0px" y="0px" width="800px" height="600px" viewBox="-315.649 -206.796 800 600" enable-background="new -315.649 -206.796 800 600" xml:space="preserve" xmlns="http://www.w3.org/2000/svg" xmlns:xlink="http://www.w3.org/1999/xlink" xmlns:a="http://ns.adobe.com/AdobeSVGViewerExtensions/3.0/">
  <defs/>
  <g>
    <path fill="#FAA51D" stroke="#000000" stroke-width="1.2" d="M49.042,141.749c-3.385,0.001-6.239-2.621-6.478-6.049l-1.183-16.985&#xD;&#xA;&#x9;c-0.221-3.174,1.888-6.041,4.983-6.775l20.296-4.815c3.494-0.832,6.996,1.33,7.825,4.823s-1.331,6.997-4.823,7.825l-14.93,3.542&#xD;&#xA;&#x9;l0.8,11.483c0.249,3.581-2.452,6.687-6.033,6.936C49.347,141.744,49.194,141.749,49.042,141.749L49.042,141.749z"/>
    <path id="ID0.4675603983923793_1_" fill="#FAA51D" stroke="#231F20" stroke-width="1.2" d="M98.174,16.803&#xD;&#xA;&#x9;c-2.832-0.263-8.735-0.581-11.986-0.425c-8.694,0.414-16.962,3.545-16.962,3.545L45.287,4.3l4.109,34.768&#xD;&#xA;&#x9;c1.188-1.439-19.41,23.545-6.397,44.546c13.021,21.012,40.886,30.375,75.374,23.523c34.49-6.857,42.717-26.722,40.432-37.23&#xD;&#xA;&#x9;C156.52,59.399,143.5,55.52,143.5,55.52s-0.165-8.238-6.12-18.334c-3.542-6.01-15.352-14.787-15.352-14.787l-5.258-21.243&#xD;&#xA;&#x9;l-13.703,13.248L98.174,16.803L98.174,16.803z"/>
    <path id="ID0.876089540310204_1_" fill="#FFFFFF" d="M141.777,55.255l-4.564-3.795l-16.762,4.893c0,0,0,6.288-8.03,8.03&#xD;&#xA;&#x9;c-8.036,1.75-20.616-4.187-20.616-4.187l-14.316,6.284c0,0-15.516,1.705-16.07,11.182c-1.238,21.062,24.604,29.842,34.396,30.401&#xD;&#xA;&#x9;c5.343,0.308,15.144-0.622,22.577-2.099c32.645-5.947,41.469-25.596,39.188-36.107c-2.284-10.508-14.672-13.232-14.672-13.232&#xD;&#xA;&#x9;L141.777,55.255L141.777,55.255z"/>
    <path id="ID0.44282719027251005_1_" fill="none" stroke="#231F20" stroke-width="1.2" d="M20.873,75.647&#xD;&#xA;&#x9;c0,0,7.553,0.688,10.986,0.493c3.43-0.196,10.1-1.079,10.1-1.079"/>
    <path id="ID0.893105489667505_1_" fill="none" stroke="#231F20" stroke-width="1.2" d="M151.406,65.563c0,0,8.365-1.367,12.613-2.85&#xD;&#xA;&#x9;c4.992-1.731,8.354-4.68,8.354-4.68"/>
    <path id="ID0.03574043000116944_1_" fill="none" stroke="#231F20" stroke-width="1.2" d="M42.322,67.839&#xD;&#xA;&#x9;c0,0-4.384-3.269-11.248-6.308c-7.603-3.367-11.778-4.235-11.778-4.235"/>
    <path id="ID0.6674723788164556_1_" fill="none" stroke="#231F20" stroke-width="1.2" d="M152.253,76.506&#xD;&#xA;&#x9;c0,0,5.014,2.029,10.175,2.547c5.095,0.508,8.544,0.202,8.544,0.202"/>
    <path id="ID0.12165586883202195_1_" fill="none" stroke="#000000" stroke-linecap="round" d="M97.514,16.906&#xD;&#xA;&#x9;c5.222,1.287,7.147,2.701,7.147,2.701"/>
    <path id="ID0.178104005753994_1_" fill="none" stroke="#000000" d="M63.582,15.935l11.141,8.014"/>
    <path id="ID0.7735752793960273_1_" fill="#FFFFFF" stroke="#231F20" d="M133.355,37.417c5.377,8.236,5.577,17.638,0.445,20.991&#xD;&#xA;&#x9;c-5.137,3.356-13.656-0.609-19.041-8.851c-5.394-8.238-5.584-17.633-0.448-20.991C119.443,25.214,127.972,29.175,133.355,37.417&#xD;&#xA;&#x9;L133.355,37.417z"/>
    <path id="ID0.19106501014903188_1_" fill="#231F20" d="M131.974,50.578c0,1.985-1.475,3.597-3.311,3.597&#xD;&#xA;&#x9;c-1.826,0-3.315-1.612-3.315-3.597c0-1.986,1.489-3.602,3.315-3.602C130.5,46.976,131.974,48.591,131.974,50.578"/>
    <path id="ID0.06283409334719181_1_" fill="#FFFFFF" stroke="#231F20" d="M89.27,43.4c5.381,8.238,4.815,18.136-1.253,22.095&#xD;&#xA;&#x9;c-6.072,3.971-15.356,0.5-20.735-7.738c-5.384-8.238-4.825-18.132,1.247-22.099C74.603,31.693,83.884,35.158,89.27,43.4L89.27,43.4z&#xD;&#xA;&#x9;"/>
    <path id="ID0.716460831463337_1_" fill="#231F20" d="M85.982,54.227c0,1.988-1.477,3.6-3.313,3.6c-1.824,0-3.314-1.615-3.314-3.6&#xD;&#xA;&#x9;c0-1.985,1.49-3.599,3.314-3.599C84.501,50.628,85.982,52.242,85.982,54.227"/>
    <path id="ID0.5430324394255877_1_" fill="#5E4A42" stroke="#000000" d="M111.152,60.514c3.409,0,8.376-0.521,8.637,1.047&#xD;&#xA;&#x9;c0.264,1.572-3.143,7.729-5.494,7.99c-2.359,0.262-11.264-4.327-11.393-7.207C102.766,59.465,108.005,60.514,111.152,60.514&#xD;&#xA;&#x9;L111.152,60.514z"/>
    <path id="ID0.5547774969600141_1_" fill="none" stroke="#231F20" stroke-width="1.2" d="M87.26,73.956&#xD;&#xA;&#x9;c0,0,19.027,5.616,26.144,7.166c7.113,1.549,19.955,3.098,19.955,3.098s-14.693,18.84-31.865,14.057&#xD;&#xA;&#x9;C84.322,93.5,84.632,82.672,87.26,73.956L87.26,73.956z"/>
    <path fill="#FAA51D" stroke="#000000" stroke-width="1.2" d="M112.949,173.205c-0.08,0-0.161-0.001-0.242-0.004l-21.017-0.667&#xD;&#xA;&#x9;c-2.8-0.089-5.317-1.731-6.527-4.259c-1.209-2.527-0.909-5.519,0.779-7.755l9.986-13.234l-13.52-2.676&#xD;&#xA;&#x9;c-4.063-0.805-6.705-4.751-5.901-8.813c0.804-4.063,4.752-6.701,8.813-5.901l25.258,5c2.534,0.502,4.631,2.271,5.552,4.685&#xD;&#xA;&#x9;c0.92,2.412,0.534,5.129-1.021,7.19L106.634,158l6.549,0.208c4.14,0.131,7.39,3.594,7.258,7.734&#xD;&#xA;&#x9;C120.312,170.001,116.981,173.205,112.949,173.205L112.949,173.205z"/>
    <path id="ID0.7152078151702881_1_" fill="#FAA51D" stroke="#000000" d="M42.474,137.967c-4.513,0.222-10.046-0.083-15.342-2.97&#xD;&#xA;&#x9;c-11.842-6.458-18.406-20.195-24.412-14.82c-6.01,5.378-0.308,28.74,23.116,30.78c8.074,0.707,14.902-0.908,20.4-2.375&#xD;&#xA;&#x9;c1.439-0.392,13.525-4.456,16.296-11.581c2.768-7.123-0.533-7.948-2.182-8.449C58.703,128.054,48.856,137.653,42.474,137.967&#xD;&#xA;&#x9;L42.474,137.967z"/>
    <path id="ID0.4691764716990292_1_" fill="#FFFFFF" d="M3.838,120.394c-3.298,1.943-3.374,10.25-0.103,16.061&#xD;&#xA;&#x9;c3.271,5.819,6.852,7.863,9.636,9.801c3.176,1.207-2.311-3.99,0.669-8.004c2.968-4.003,9.865-4.075,9.865-4.075&#xD;&#xA;&#x9;s-6.9-5.895-10.898-9.497C9.211,121.215,7.422,118.591,3.838,120.394L3.838,120.394z"/>
    <path id="ID0.26425604708492756_1_" fill="#FAA51D" stroke="#231F20" stroke-width="1.2" d="M86.532,141.586&#xD;&#xA;&#x9;c2.185-1.678,4.408-4.418,7.267-8.668c2.383-3.543,4.965-10.257,4.965-10.257c1.608-4.636,3.557-12.093-3.498-13.417&#xD;&#xA;&#x9;c-2.855-0.535-7.501-0.18-14.104-1.427c-6.607-1.253-12.501-4.638-17.501,4.106c-4.998,8.748-17.636,15.209-1.942,30.458&#xD;&#xA;&#x9;L86.532,141.586z"/>
    <path fill="#FAA51D" stroke="#000000" stroke-width="1.2" d="M44.644,185.204H30.522c-1.622,0-3.201-0.526-4.499-1.499l-9.337-7&#xD;&#xA;&#x9;c-2.184-1.638-3.306-4.332-2.93-7.035c0.377-2.703,2.191-4.988,4.739-5.967l28.78-11.056l7.886-19.646&#xD;&#xA;&#x9;c1.543-3.844,5.913-5.71,9.754-4.166c3.844,1.543,5.709,5.909,4.166,9.754l-9.104,22.681c-0.776,1.935-2.324,3.46-4.271,4.207&#xD;&#xA;&#x9;l-12.305,4.727h1.241c4.143,0,7.5,3.357,7.5,7.5S48.787,185.204,44.644,185.204L44.644,185.204z"/>
    <path id="ID0.203311821911484_1_" fill="#FFFFFF" d="M94.807,129.49c0,0,4.542-4.892-4.54-9.778&#xD;&#xA;&#x9;c-9.082-4.886-13.265-0.031-16.07,2.797c-4.862,4.883,6.331,12.158,6.331,12.158l5.841,5.892c0,0,3.195-3.028,4.596-5.478&#xD;&#xA;&#x9;C92.57,132.848,94.807,129.49,94.807,129.49"/>
    <ellipse transform="matrix(0.7127 0.7015 -0.7015 0.7127 112.7684 -6.3173)" fill="#FAA51D" cx="64.096" cy="134.497" rx="9.811" ry="8.535"/>
    <path fill="#FAA51D" stroke="#000000" stroke-width="1.2" d="M100.096,139.204c-2,0-3.936-0.925-5.188-2.583l-12.399-16.418&#xD;&#xA;&#x9;c-2.164-2.864-1.596-6.94,1.27-9.104c2.863-2.164,6.94-1.596,9.104,1.27l9.582,12.688l15.7-5.257&#xD;&#xA;&#x9;c3.402-1.137,7.087,0.695,8.228,4.101c1.14,3.404-0.696,7.088-4.101,8.228l-20.133,6.74&#xD;&#xA;&#x9;C101.481,139.094,100.785,139.204,100.096,139.204L100.096,139.204z"/>
  </g>
</svg>