<svg version="1.1" x="0px" y="0px" width="800px" height="600px" viewBox="-317.523 -211.92 800 600" enable-background="new -317.523 -211.92 800 600" xml:space="preserve" xmlns="http://www.w3.org/2000/svg" xmlns:xlink="http://www.w3.org/1999/xlink" xmlns:a="http://ns.adobe.com/AdobeSVGViewerExtensions/3.0/">
  <defs/>
  <g>
    <path fill="#FAA51D" stroke="#000000" stroke-width="1.2" d="M39.397,138.644c-0.255,0-0.512-0.016-0.771-0.046&#xD;&#xA;&#x9;c-3.564-0.422-6.113-3.653-5.691-7.219l2.04-17.25c0.364-3.079,2.854-5.474,5.945-5.717l21.344-1.679&#xD;&#xA;&#x9;c3.575-0.26,6.708,2.392,6.99,5.971c0.281,3.579-2.392,6.708-5.971,6.99l-16.025,1.26l-1.413,11.952&#xD;&#xA;&#x9;C45.454,136.212,42.646,138.643,39.397,138.644L39.397,138.644z"/>
    <path id="ID0.4675603983923793_1_" fill="#FAA51D" stroke="#231F20" stroke-width="1.2" d="M94.787,16.803&#xD;&#xA;&#x9;c-2.832-0.263-8.735-0.581-11.986-0.425c-8.694,0.414-16.962,3.545-16.962,3.545L41.899,4.3l4.109,34.768&#xD;&#xA;&#x9;c1.188-1.439-19.41,23.545-6.397,44.546c13.021,21.012,40.886,30.375,75.374,23.523c34.49-6.857,42.717-26.722,40.432-37.23&#xD;&#xA;&#x9;c-2.284-10.508-15.304-14.387-15.304-14.387s-0.165-8.238-6.12-18.334c-3.542-6.01-15.352-14.787-15.352-14.787l-5.258-21.243&#xD;&#xA;&#x9;L99.68,14.404L94.787,16.803L94.787,16.803z"/>
    <path id="ID0.876089540310204_1_" fill="#FFFFFF" d="M138.389,55.255l-4.564-3.795l-16.762,4.893c0,0,0,6.288-8.03,8.03&#xD;&#xA;&#x9;c-8.036,1.75-20.616-4.187-20.616-4.187L74.1,66.481c0,0-15.516,1.705-16.07,11.182c-1.238,21.062,24.604,29.842,34.396,30.401&#xD;&#xA;&#x9;c5.343,0.308,15.144-0.622,22.577-2.099c32.645-5.947,41.469-25.596,39.188-36.107c-2.284-10.508-14.672-13.232-14.672-13.232&#xD;&#xA;&#x9;L138.389,55.255L138.389,55.255z"/>
    <path id="ID0.44282719027251005_1_" fill="none" stroke="#231F20" stroke-width="1.2" d="M17.485,75.647&#xD;&#xA;&#x9;c0,0,7.553,0.688,10.986,0.493c3.43-0.196,10.1-1.079,10.1-1.079"/>
    <path id="ID0.893105489667505_1_" fill="none" stroke="#231F20" stroke-width="1.2" d="M148.018,65.563c0,0,8.365-1.367,12.613-2.85&#xD;&#xA;&#x9;c4.992-1.731,8.354-4.68,8.354-4.68"/>
    <path id="ID0.03574043000116944_1_" fill="none" stroke="#231F20" stroke-width="1.2" d="M38.934,67.839&#xD;&#xA;&#x9;c0,0-4.384-3.269-11.248-6.308c-7.603-3.367-11.778-4.235-11.778-4.235"/>
    <path id="ID0.6674723788164556_1_" fill="none" stroke="#231F20" stroke-width="1.2" d="M148.866,76.506&#xD;&#xA;&#x9;c0,0,5.014,2.029,10.175,2.547c5.095,0.508,8.544,0.202,8.544,0.202"/>
    <path id="ID0.12165586883202195_1_" fill="none" stroke="#000000" stroke-linecap="round" d="M94.126,16.906&#xD;&#xA;&#x9;c5.222,1.287,7.147,2.701,7.147,2.701"/>
    <path id="ID0.178104005753994_1_" fill="none" stroke="#000000" d="M60.194,15.935l11.141,8.014"/>
    <path id="ID0.7735752793960273_1_" fill="#FFFFFF" stroke="#231F20" d="M129.967,37.417c5.377,8.236,5.577,17.638,0.445,20.991&#xD;&#xA;&#x9;c-5.137,3.356-13.656-0.609-19.041-8.851c-5.394-8.238-5.584-17.633-0.448-20.991C116.055,25.214,124.584,29.175,129.967,37.417&#xD;&#xA;&#x9;L129.967,37.417z"/>
    <path id="ID0.19106501014903188_1_" fill="#231F20" d="M128.586,50.578c0,1.985-1.475,3.597-3.311,3.597&#xD;&#xA;&#x9;c-1.826,0-3.315-1.612-3.315-3.597c0-1.986,1.489-3.602,3.315-3.602C127.112,46.976,128.586,48.591,128.586,50.578"/>
    <path id="ID0.06283409334719181_1_" fill="#FFFFFF" stroke="#231F20" d="M85.882,43.4c5.381,8.238,4.815,18.136-1.253,22.095&#xD;&#xA;&#x9;c-6.072,3.971-15.356,0.5-20.735-7.738c-5.384-8.238-4.825-18.132,1.247-22.099C71.215,31.693,80.497,35.158,85.882,43.4&#xD;&#xA;&#x9;L85.882,43.4z"/>
    <path id="ID0.716460831463337_1_" fill="#231F20" d="M82.594,54.227c0,1.988-1.477,3.6-3.313,3.6c-1.824,0-3.314-1.615-3.314-3.6&#xD;&#xA;&#x9;c0-1.985,1.49-3.599,3.314-3.599C81.114,50.628,82.594,52.242,82.594,54.227"/>
    <path id="ID0.5430324394255877_1_" fill="#5E4A42" stroke="#000000" d="M107.764,60.514c3.409,0,8.376-0.521,8.637,1.047&#xD;&#xA;&#x9;c0.264,1.572-3.143,7.729-5.494,7.99c-2.359,0.262-11.264-4.327-11.393-7.207C99.378,59.465,104.618,60.514,107.764,60.514&#xD;&#xA;&#x9;L107.764,60.514z"/>
    <path id="ID0.5547774969600141_1_" fill="none" stroke="#231F20" stroke-width="1.2" d="M83.873,73.956&#xD;&#xA;&#x9;c0,0,19.027,5.616,26.144,7.166c7.113,1.549,19.955,3.098,19.955,3.098s-14.693,18.84-31.865,14.057&#xD;&#xA;&#x9;C80.934,93.5,81.245,82.672,83.873,73.956L83.873,73.956z"/>
    <path fill="#FAA51D" stroke="#000000" stroke-width="1.2" d="M115.528,174.704c-0.001,0-0.001,0-0.002,0l-21.055-0.005&#xD;&#xA;&#x9;c-3.537-0.001-6.593-2.473-7.332-5.933l-3.623-16.95l-8.607-9.539c-2.774-3.075-2.531-7.818,0.544-10.593s7.818-2.531,10.593,0.544&#xD;&#xA;&#x9;l9.953,11.031c0.882,0.978,1.491,2.17,1.766,3.457l2.775,12.983l14.99,0.004c4.142,0.001,7.499,3.359,7.498,7.502&#xD;&#xA;&#x9;C123.027,171.347,119.669,174.704,115.528,174.704L115.528,174.704z"/>
    <path id="ID0.7152078151702881_1_" fill="#FAA51D" stroke="#000000" d="M35.803,133.571c-4.201-1.663-9.113-4.228-12.744-9.044&#xD;&#xA;&#x9;c-8.115-10.774-8.416-25.996-16.105-23.583c-7.695,2.413-12.156,26.045,8.331,37.58c7.061,3.981,13.945,5.332,19.559,6.268&#xD;&#xA;&#x9;c1.473,0.239,14.159,1.53,19.625-3.813c5.464-5.343,2.799-7.458,1.505-8.595C54.678,131.249,41.746,135.922,35.803,133.571&#xD;&#xA;&#x9;L35.803,133.571z"/>
    <path id="ID0.4691764716990292_1_" fill="#FFFFFF" d="M7.882,101.601c-3.808,0.409-7.309,7.942-6.729,14.585&#xD;&#xA;&#x9;c0.575,6.65,2.989,9.991,4.724,12.907c2.394,2.41-0.456-4.589,3.916-7.014c4.358-2.419,10.669,0.364,10.669,0.364&#xD;&#xA;&#x9;s-3.85-8.218-6.001-13.149C12.436,104.571,11.891,101.442,7.882,101.601L7.882,101.601z"/>
    <path id="ID0.26425604708492756_1_" fill="#FAA51D" stroke="#231F20" stroke-width="1.2" d="M83.144,141.586&#xD;&#xA;&#x9;c2.185-1.678,4.408-4.418,7.267-8.668c2.383-3.543,4.965-10.257,4.965-10.257c1.608-4.636,3.557-12.093-3.498-13.417&#xD;&#xA;&#x9;c-2.855-0.535-7.501-0.18-14.104-1.427c-6.607-1.253-12.501-4.638-17.501,4.106c-4.998,8.748-17.636,15.209-1.942,30.458&#xD;&#xA;&#x9;L83.144,141.586z"/>
    <path fill="#FAA51D" stroke="#000000" stroke-width="1.2" d="M34.259,176.204c-2.066,0-4.123-0.849-5.604-2.513l-12.461-14.003&#xD;&#xA;&#x9;c-1.929-2.168-2.434-5.254-1.297-7.923c1.137-2.67,3.712-4.444,6.611-4.556l26.707-1.03l4.429-12.831&#xD;&#xA;&#x9;c1.352-3.914,5.619-5.994,9.537-4.643c3.915,1.352,5.994,5.622,4.643,9.537l-6.104,17.681c-1.01,2.924-3.71,4.928-6.801,5.047&#xD;&#xA;&#x9;l-15.958,0.615l1.896,2.131c2.755,3.094,2.479,7.835-0.614,10.589C37.814,175.578,36.033,176.204,34.259,176.204L34.259,176.204z"/>
    <path id="ID0.203311821911484_1_" fill="#FFFFFF" d="M91.419,129.49c0,0,4.542-4.892-4.54-9.778&#xD;&#xA;&#x9;c-9.082-4.886-13.265-0.031-16.07,2.797c-4.862,4.883,6.331,12.158,6.331,12.158l5.841,5.892c0,0,3.195-3.028,4.596-5.478&#xD;&#xA;&#x9;C89.182,132.848,91.419,129.49,91.419,129.49"/>
    <ellipse transform="matrix(0.7127 0.7015 -0.7015 0.7127 111.795 -3.9408)" fill="#FAA51D" cx="60.708" cy="134.497" rx="9.811" ry="8.535"/>
    <path fill="#FAA51D" stroke="#000000" stroke-width="1.2" d="M101.609,133.016c-1.161,0-2.319-0.311-3.346-0.927l-16.695-10.022&#xD;&#xA;&#x9;c-3.078-1.848-4.075-5.841-2.228-8.919s5.84-4.075,8.919-2.228l13.655,8.198l15.769-7.773c3.22-1.585,7.117-0.264,8.704,2.956&#xD;&#xA;&#x9;s0.264,7.117-2.956,8.704l-18.948,9.341C103.575,132.793,102.591,133.016,101.609,133.016L101.609,133.016z"/>
  </g>
</svg>