<svg version="1.1" x="0px" y="0px" width="800px" height="600px" viewBox="-318.553 -213.796 800 600" enable-background="new -318.553 -213.796 800 600" xml:space="preserve" xmlns="http://www.w3.org/2000/svg" xmlns:xlink="http://www.w3.org/1999/xlink" xmlns:a="http://ns.adobe.com/AdobeSVGViewerExtensions/3.0/">
  <defs/>
  <g>
    <path fill="#FAA51D" stroke="#000000" stroke-width="1.2" d="M36.88,138.644c-0.375,0-0.754-0.032-1.136-0.1&#xD;&#xA;&#x9;c-3.536-0.623-5.896-3.994-5.273-7.529l3.04-17.25c0.514-2.919,2.938-5.12,5.892-5.353l21.344-1.679&#xD;&#xA;&#x9;c3.598-0.269,6.708,2.393,6.99,5.971c0.281,3.579-2.392,6.708-5.97,6.99l-16.326,1.283l-2.167,12.293&#xD;&#xA;&#x9;C42.718,136.425,39.975,138.644,36.88,138.644L36.88,138.644z"/>
    <path id="ID0.4675603983923793_1_" fill="#FAA51D" stroke="#231F20" stroke-width="1.2" d="M93.27,16.803&#xD;&#xA;&#x9;c-2.832-0.263-8.735-0.581-11.986-0.425c-8.694,0.414-16.962,3.545-16.962,3.545L40.382,4.3l4.109,34.768&#xD;&#xA;&#x9;c1.188-1.439-19.41,23.545-6.397,44.546c13.021,21.012,40.886,30.375,75.374,23.523c34.49-6.857,42.717-26.722,40.432-37.23&#xD;&#xA;&#x9;c-2.284-10.508-15.304-14.387-15.304-14.387s-0.165-8.238-6.12-18.334c-3.542-6.01-15.352-14.787-15.352-14.787l-5.258-21.243&#xD;&#xA;&#x9;L98.164,14.404L93.27,16.803L93.27,16.803z"/>
    <path id="ID0.876089540310204_1_" fill="#FFFFFF" d="M136.873,55.255l-4.564-3.795l-16.762,4.893c0,0,0,6.288-8.03,8.03&#xD;&#xA;&#x9;C99.48,66.133,86.9,60.197,86.9,60.197l-14.316,6.284c0,0-15.516,1.705-16.07,11.182c-1.238,21.062,24.604,29.842,34.396,30.401&#xD;&#xA;&#x9;c5.343,0.308,15.144-0.622,22.577-2.099c32.645-5.947,41.469-25.596,39.188-36.107c-2.284-10.508-14.672-13.232-14.672-13.232&#xD;&#xA;&#x9;L136.873,55.255L136.873,55.255z"/>
    <path id="ID0.44282719027251005_1_" fill="none" stroke="#231F20" stroke-width="1.2" d="M15.968,75.647&#xD;&#xA;&#x9;c0,0,7.553,0.688,10.986,0.493c3.43-0.196,10.1-1.079,10.1-1.079"/>
    <path id="ID0.893105489667505_1_" fill="none" stroke="#231F20" stroke-width="1.2" d="M146.501,65.563c0,0,8.365-1.367,12.613-2.85&#xD;&#xA;&#x9;c4.992-1.731,8.354-4.68,8.354-4.68"/>
    <path id="ID0.03574043000116944_1_" fill="none" stroke="#231F20" stroke-width="1.2" d="M37.417,67.839&#xD;&#xA;&#x9;c0,0-4.384-3.269-11.248-6.308c-7.603-3.367-11.778-4.235-11.778-4.235"/>
    <path id="ID0.6674723788164556_1_" fill="none" stroke="#231F20" stroke-width="1.2" d="M147.349,76.506&#xD;&#xA;&#x9;c0,0,5.014,2.029,10.175,2.547c5.095,0.508,8.544,0.202,8.544,0.202"/>
    <path id="ID0.12165586883202195_1_" fill="none" stroke="#000000" stroke-linecap="round" d="M92.61,16.906&#xD;&#xA;&#x9;c5.222,1.287,7.147,2.701,7.147,2.701"/>
    <path id="ID0.178104005753994_1_" fill="none" stroke="#000000" d="M58.677,15.935l11.141,8.014"/>
    <path id="ID0.7735752793960273_1_" fill="#FFFFFF" stroke="#231F20" d="M128.451,37.417c5.377,8.236,5.577,17.638,0.445,20.991&#xD;&#xA;&#x9;c-5.137,3.356-13.656-0.609-19.041-8.851c-5.394-8.238-5.584-17.633-0.448-20.991C114.539,25.214,123.068,29.175,128.451,37.417&#xD;&#xA;&#x9;L128.451,37.417z"/>
    <path id="ID0.19106501014903188_1_" fill="#231F20" d="M127.07,50.578c0,1.985-1.475,3.597-3.311,3.597&#xD;&#xA;&#x9;c-1.826,0-3.315-1.612-3.315-3.597c0-1.986,1.489-3.602,3.315-3.602C125.595,46.976,127.07,48.591,127.07,50.578"/>
    <path id="ID0.06283409334719181_1_" fill="#FFFFFF" stroke="#231F20" d="M84.366,43.4c5.381,8.238,4.815,18.136-1.253,22.095&#xD;&#xA;&#x9;c-6.072,3.971-15.356,0.5-20.735-7.738c-5.384-8.238-4.825-18.132,1.247-22.099C69.699,31.693,78.98,35.158,84.366,43.4L84.366,43.4&#xD;&#xA;&#x9;z"/>
    <path id="ID0.716460831463337_1_" fill="#231F20" d="M81.078,54.227c0,1.988-1.477,3.6-3.313,3.6c-1.824,0-3.314-1.615-3.314-3.6&#xD;&#xA;&#x9;c0-1.985,1.49-3.599,3.314-3.599C79.597,50.628,81.078,52.242,81.078,54.227"/>
    <path id="ID0.5430324394255877_1_" fill="#5E4A42" stroke="#000000" d="M106.248,60.514c3.409,0,8.376-0.521,8.637,1.047&#xD;&#xA;&#x9;c0.264,1.572-3.143,7.729-5.494,7.99c-2.359,0.262-11.264-4.327-11.393-7.207C97.862,59.465,103.101,60.514,106.248,60.514&#xD;&#xA;&#x9;L106.248,60.514z"/>
    <path id="ID0.5547774969600141_1_" fill="none" stroke="#231F20" stroke-width="1.2" d="M82.356,73.956&#xD;&#xA;&#x9;c0,0,19.027,5.616,26.144,7.166c7.113,1.549,19.955,3.098,19.955,3.098s-14.693,18.84-31.865,14.057&#xD;&#xA;&#x9;C79.417,93.5,79.728,82.672,82.356,73.956L82.356,73.956z"/>
    <path fill="#FAA51D" stroke="#000000" stroke-width="1.2" d="M107.011,170.704c0,0-0.001,0-0.002,0l-21.055-0.005&#xD;&#xA;&#x9;c-2.599-0.001-5.012-1.347-6.378-3.558s-1.49-4.972-0.328-7.296l5.005-10.011l-9.471-6.354c-3.44-2.308-4.358-6.967-2.05-10.407&#xD;&#xA;&#x9;c2.308-3.438,6.967-4.356,10.406-2.05l14.953,10.031c3.135,2.103,4.219,6.207,2.531,9.582l-2.533,5.064l8.924,0.002&#xD;&#xA;&#x9;c4.143,0.001,7.499,3.359,7.498,7.502C114.51,167.347,111.152,170.704,107.011,170.704L107.011,170.704z"/>
    <path id="ID0.7152078151702881_1_" fill="#FAA51D" stroke="#000000" d="M34.77,129.918c-4.105-1.888-8.872-4.714-12.236-9.72&#xD;&#xA;&#x9;c-7.522-11.197-7-26.413-14.808-24.419c-7.814,1.994-13.546,25.35,6.289,37.976c6.834,4.357,13.637,6.078,19.191,7.315&#xD;&#xA;&#x9;c1.458,0.318,14.056,2.294,19.802-2.746c5.745-5.04,3.198-7.296,1.968-8.501C53.741,128.62,40.575,132.587,34.77,129.918&#xD;&#xA;&#x9;L34.77,129.918z"/>
    <path id="ID0.4691764716990292_1_" fill="#FFFFFF" d="M8.617,96.487c-3.823,0.202-7.727,7.535-7.508,14.199&#xD;&#xA;&#x9;c0.215,6.672,2.445,10.139,4.02,13.144c2.26,2.536-0.207-4.606,4.29-6.791c4.482-2.18,10.633,0.94,10.633,0.94&#xD;&#xA;&#x9;s-3.399-8.414-5.281-13.455C13.003,99.698,12.628,96.544,8.617,96.487L8.617,96.487z"/>
    <path id="ID0.26425604708492756_1_" fill="#FAA51D" stroke="#231F20" stroke-width="1.2" d="M81.627,141.586&#xD;&#xA;&#x9;c2.185-1.678,4.408-4.418,7.267-8.668c2.383-3.543,4.965-10.257,4.965-10.257c1.608-4.636,3.557-12.093-3.498-13.417&#xD;&#xA;&#x9;c-2.855-0.535-7.501-0.18-14.104-1.427c-6.607-1.253-12.501-4.638-17.501,4.106c-4.998,8.748-17.636,15.209-1.942,30.458&#xD;&#xA;&#x9;L81.627,141.586z"/>
    <path fill="#FAA51D" stroke="#000000" stroke-width="1.2" d="M41.737,172.204c-1.756,0-3.519-0.612-4.942-1.861l-9.122-8&#xD;&#xA;&#x9;c-0.233-0.204-0.453-0.423-0.659-0.654l-5.337-6c-2.014-2.264-2.467-5.517-1.15-8.245s4.147-4.404,7.171-4.228l23.478,1.307&#xD;&#xA;&#x9;l-0.447-8.324c-0.222-4.136,2.951-7.669,7.087-7.892c4.141-0.204,7.669,2.951,7.892,7.087l0.896,16.681&#xD;&#xA;&#x9;c0.114,2.128-0.682,4.205-2.191,5.711c-1.509,1.506-3.579,2.302-5.715,2.18l-11.745-0.654c2.863,2.763,3.077,7.316,0.426,10.339&#xD;&#xA;&#x9;C45.896,171.339,43.821,172.204,41.737,172.204L41.737,172.204z"/>
    <path id="ID0.203311821911484_1_" fill="#FFFFFF" d="M89.903,129.49c0,0,4.542-4.892-4.54-9.778&#xD;&#xA;&#x9;c-9.082-4.886-13.265-0.031-16.07,2.797c-4.862,4.883,6.331,12.158,6.331,12.158l5.841,5.892c0,0,3.195-3.028,4.596-5.478&#xD;&#xA;&#x9;C87.666,132.848,89.903,129.49,89.903,129.49"/>
    <ellipse transform="matrix(0.7127 0.7015 -0.7015 0.7127 111.3592 -2.8769)" fill="#FAA51D" cx="59.191" cy="134.497" rx="9.811" ry="8.535"/>
    <path fill="#FAA51D" stroke="#000000" stroke-width="1.2" d="M100.093,134.016c-1.256,0-2.503-0.363-3.582-1.075l-16.695-11.022&#xD;&#xA;&#x9;c-2.996-1.979-3.821-6.01-1.843-9.006s6.011-3.82,9.005-1.844l13.738,9.07l15.705-6.913c3.286-1.445,7.123,0.045,8.568,3.33&#xD;&#xA;&#x9;c1.446,3.286-0.045,7.122-3.33,8.568l-18.949,8.341C101.873,133.834,100.981,134.016,100.093,134.016L100.093,134.016z"/>
  </g>
</svg>