<svg version="1.1" x="0px" y="0px" width="800px" height="600px" viewBox="-318.087 -212.909 800 600" enable-background="new -318.087 -212.909 800 600" xml:space="preserve" xmlns="http://www.w3.org/2000/svg" xmlns:xlink="http://www.w3.org/1999/xlink" xmlns:a="http://ns.adobe.com/AdobeSVGViewerExtensions/3.0/">
  <defs/>
  <g>
    <path fill="#FAA51D" stroke="#000000" stroke-width="1.2" d="M50.849,147.447c-2.747,0-5.3-1.756-6.186-4.512l-5.364-16.674&#xD;&#xA;&#x9;c-0.908-2.82,0.208-5.898,2.712-7.483l18.092-11.448c3.035-1.918,7.049-1.016,8.968,2.018s1.017,7.049-2.017,8.969l-13.838,8.756&#xD;&#xA;&#x9;l3.822,11.883c1.1,3.417-0.779,7.078-4.197,8.178C52.179,147.345,51.508,147.447,50.849,147.447L50.849,147.447z"/>
    <path id="ID0.4675603983923793_1_" fill="#FAA51D" stroke="#231F20" stroke-width="1.2" d="M94.254,16.803&#xD;&#xA;&#x9;c-2.832-0.263-8.735-0.581-11.986-0.425c-8.694,0.414-16.962,3.545-16.962,3.545L41.367,4.3l4.109,34.768&#xD;&#xA;&#x9;c1.188-1.439-19.41,23.545-6.397,44.546c13.021,21.012,40.886,30.375,75.374,23.523c34.49-6.857,42.717-26.722,40.432-37.23&#xD;&#xA;&#x9;C152.6,59.399,139.581,55.52,139.581,55.52s-0.165-8.238-6.12-18.334c-3.542-6.01-15.352-14.787-15.352-14.787l-5.258-21.243&#xD;&#xA;&#x9;L99.148,14.404L94.254,16.803L94.254,16.803z"/>
    <path id="ID0.876089540310204_1_" fill="#FFFFFF" d="M137.857,55.255l-4.564-3.795l-16.762,4.893c0,0,0,6.288-8.03,8.03&#xD;&#xA;&#x9;c-8.036,1.75-20.616-4.187-20.616-4.187l-14.316,6.284c0,0-15.516,1.705-16.07,11.182c-1.238,21.062,24.604,29.842,34.396,30.401&#xD;&#xA;&#x9;c5.343,0.308,15.144-0.622,22.577-2.099c32.645-5.947,41.469-25.596,39.188-36.107c-2.284-10.508-14.672-13.232-14.672-13.232&#xD;&#xA;&#x9;L137.857,55.255L137.857,55.255z"/>
    <path id="ID0.44282719027251005_1_" fill="none" stroke="#231F20" stroke-width="1.2" d="M16.953,75.647&#xD;&#xA;&#x9;c0,0,7.553,0.688,10.986,0.493c3.43-0.196,10.1-1.079,10.1-1.079"/>
    <path id="ID0.893105489667505_1_" fill="none" stroke="#231F20" stroke-width="1.2" d="M147.486,65.563c0,0,8.365-1.367,12.613-2.85&#xD;&#xA;&#x9;c4.992-1.731,8.354-4.68,8.354-4.68"/>
    <path id="ID0.03574043000116944_1_" fill="none" stroke="#231F20" stroke-width="1.2" d="M38.402,67.839&#xD;&#xA;&#x9;c0,0-4.384-3.269-11.248-6.308c-7.603-3.367-11.778-4.235-11.778-4.235"/>
    <path id="ID0.6674723788164556_1_" fill="none" stroke="#231F20" stroke-width="1.2" d="M148.333,76.506&#xD;&#xA;&#x9;c0,0,5.014,2.029,10.175,2.547c5.095,0.508,8.544,0.202,8.544,0.202"/>
    <path id="ID0.12165586883202195_1_" fill="none" stroke="#000000" stroke-linecap="round" d="M93.594,16.906&#xD;&#xA;&#x9;c5.222,1.287,7.147,2.701,7.147,2.701"/>
    <path id="ID0.178104005753994_1_" fill="none" stroke="#000000" d="M59.662,15.935l11.141,8.014"/>
    <path id="ID0.7735752793960273_1_" fill="#FFFFFF" stroke="#231F20" d="M129.435,37.417c5.377,8.236,5.577,17.638,0.445,20.991&#xD;&#xA;&#x9;c-5.137,3.356-13.656-0.609-19.041-8.851c-5.394-8.238-5.584-17.633-0.448-20.991C115.523,25.214,124.052,29.175,129.435,37.417&#xD;&#xA;&#x9;L129.435,37.417z"/>
    <path id="ID0.19106501014903188_1_" fill="#231F20" d="M128.054,50.578c0,1.985-1.475,3.597-3.311,3.597&#xD;&#xA;&#x9;c-1.826,0-3.315-1.612-3.315-3.597c0-1.986,1.489-3.602,3.315-3.602C126.58,46.976,128.054,48.591,128.054,50.578"/>
    <path id="ID0.06283409334719181_1_" fill="#FFFFFF" stroke="#231F20" d="M85.35,43.4c5.381,8.238,4.815,18.136-1.253,22.095&#xD;&#xA;&#x9;c-6.072,3.971-15.356,0.5-20.735-7.738c-5.384-8.238-4.825-18.132,1.247-22.099C70.683,31.693,79.964,35.158,85.35,43.4L85.35,43.4z&#xD;&#xA;&#x9;"/>
    <path id="ID0.716460831463337_1_" fill="#231F20" d="M82.062,54.227c0,1.988-1.477,3.6-3.313,3.6c-1.824,0-3.314-1.615-3.314-3.6&#xD;&#xA;&#x9;c0-1.985,1.49-3.599,3.314-3.599C80.582,50.628,82.062,52.242,82.062,54.227"/>
    <path id="ID0.5430324394255877_1_" fill="#5E4A42" stroke="#000000" d="M107.232,60.514c3.409,0,8.376-0.521,8.637,1.047&#xD;&#xA;&#x9;c0.264,1.572-3.143,7.729-5.494,7.99c-2.359,0.262-11.264-4.327-11.393-7.207C98.846,59.465,104.085,60.514,107.232,60.514&#xD;&#xA;&#x9;L107.232,60.514z"/>
    <path id="ID0.5547774969600141_1_" fill="none" stroke="#231F20" stroke-width="1.2" d="M83.34,73.956&#xD;&#xA;&#x9;c0,0,19.027,5.616,26.144,7.166c7.113,1.549,19.955,3.098,19.955,3.098s-14.693,18.84-31.865,14.057&#xD;&#xA;&#x9;C80.402,93.5,80.712,82.672,83.34,73.956L83.34,73.956z"/>
    <path fill="#FAA51D" stroke="#000000" stroke-width="1.2" d="M88.996,173.704c-0.001,0-0.001,0-0.002,0l-21.055-0.005&#xD;&#xA;&#x9;c-3.092-0.001-5.868-1.899-6.988-4.782c-1.121-2.882-0.357-6.157,1.922-8.246l15.14-13.878l-3.9-4.824&#xD;&#xA;&#x9;c-2.604-3.222-2.104-7.943,1.117-10.548c3.219-2.604,7.943-2.105,10.547,1.116l8.333,10.306c2.49,3.081,2.156,7.567-0.765,10.244&#xD;&#xA;&#x9;l-6.128,5.617h1.78c4.142,0.001,7.499,3.359,7.498,7.502C96.495,170.347,93.137,173.704,88.996,173.704L88.996,173.704z"/>
    <path id="ID0.7152078151702881_1_" fill="#FAA51D" stroke="#000000" d="M36.731,131.225c-4.279-1.451-9.313-3.768-13.179-8.396&#xD;&#xA;&#x9;c-8.644-10.356-9.703-25.544-17.263-22.751c-7.565,2.795-10.842,26.619,10.196,37.118c7.25,3.625,14.194,4.63,19.847,5.284&#xD;&#xA;&#x9;c1.482,0.165,14.218,0.822,19.41-4.786c5.19-5.609,2.424-7.589,1.075-8.66C55.466,127.964,42.783,133.277,36.731,131.225&#xD;&#xA;&#x9;L36.731,131.225z"/>
    <path id="ID0.4691764716990292_1_" fill="#FFFFFF" d="M7.25,100.689c-3.782,0.598-6.903,8.296-5.994,14.901&#xD;&#xA;&#x9;c0.907,6.613,3.484,9.83,5.363,12.655c2.511,2.288-0.684-4.56,3.562-7.199c4.231-2.633,10.673-0.168,10.673-0.168&#xD;&#xA;&#x9;s-4.254-8.017-6.649-12.835C11.946,103.427,11.246,100.33,7.25,100.689L7.25,100.689z"/>
    <path id="ID0.26425604708492756_1_" fill="#FAA51D" stroke="#231F20" stroke-width="1.2" d="M82.612,141.586&#xD;&#xA;&#x9;c2.185-1.678,4.408-4.418,7.267-8.668c2.383-3.543,4.965-10.257,4.965-10.257c1.608-4.636,3.557-12.093-3.498-13.417&#xD;&#xA;&#x9;c-2.855-0.535-7.501-0.18-14.104-1.427c-6.607-1.253-12.501-4.638-17.501,4.106c-4.998,8.748-17.636,15.209-1.942,30.458&#xD;&#xA;&#x9;L82.612,141.586z"/>
    <path fill="#FAA51D" stroke="#000000" stroke-width="1.2" d="M54.279,169.037c-2,0-3.996-0.795-5.472-2.369l-7.346-7.833&#xD;&#xA;&#x9;c-0.158-0.169-0.308-0.345-0.45-0.526l-4.666-6c-1.898-2.441-2.104-5.797-0.518-8.451c1.587-2.654,4.643-4.063,7.688-3.549&#xD;&#xA;&#x9;l11.398,1.926l-1.272-1.407c-2.779-3.072-2.541-7.814,0.531-10.594c3.072-2.778,7.815-2.54,10.593,0.531l15.769,17.433&#xD;&#xA;&#x9;c2.143,2.369,2.55,5.835,1.015,8.636c-1.535,2.801-4.676,4.322-7.826,3.791l-12.585-2.126c1.255,2.834,0.66,6.27-1.729,8.51&#xD;&#xA;&#x9;C57.961,168.365,56.118,169.037,54.279,169.037L54.279,169.037z"/>
    <path id="ID0.203311821911484_1_" fill="#FFFFFF" d="M90.887,129.49c0,0,4.542-4.892-4.54-9.778&#xD;&#xA;&#x9;c-9.082-4.886-13.265-0.031-16.07,2.797c-4.862,4.883,6.331,12.158,6.331,12.158l5.841,5.892c0,0,3.195-3.028,4.596-5.478&#xD;&#xA;&#x9;C88.65,132.848,90.887,129.49,90.887,129.49"/>
    <ellipse transform="matrix(0.7127 0.7015 -0.7015 0.7127 111.6421 -3.5674)" fill="#FAA51D" cx="60.176" cy="134.497" rx="9.811" ry="8.535"/>
    <path fill="#FAA51D" stroke="#000000" stroke-width="1.2" d="M103.29,142.143c-0.041,0-0.082,0-0.123-0.001l-22.228-0.41&#xD;&#xA;&#x9;c-2.929-0.054-5.459-2.061-6.18-4.899l-5.01-19.736c-0.883-3.479,1.222-7.017,4.701-7.899c3.479-0.886,7.016,1.222,7.899,4.7&#xD;&#xA;&#x9;l3.79,14.929l17.268,0.318c3.59,0.066,6.445,3.029,6.379,6.619C109.721,139.311,106.823,142.143,103.29,142.143L103.29,142.143z"/>
  </g>
</svg>