<svg version="1.1" x="0px" y="0px" width="800px" height="600px" viewBox="-316.307 -211.796 800 600" enable-background="new -316.307 -211.796 800 600" xml:space="preserve" xmlns="http://www.w3.org/2000/svg" xmlns:xlink="http://www.w3.org/1999/xlink" xmlns:a="http://ns.adobe.com/AdobeSVGViewerExtensions/3.0/">
  <defs/>
  <g>
    <path id="ID0.4675603983923793_1_" fill="#FAA51D" stroke="#231F20" stroke-width="1.2" d="M95.517,16.803&#xD;&#xA;&#x9;c-2.832-0.263-8.735-0.581-11.986-0.425c-8.694,0.414-16.962,3.545-16.962,3.545L42.629,4.3l4.109,34.768&#xD;&#xA;&#x9;c1.188-1.439-19.41,23.545-6.397,44.546c13.021,21.012,40.886,30.375,75.374,23.523c34.49-6.857,42.717-26.722,40.432-37.23&#xD;&#xA;&#x9;c-2.284-10.508-15.304-14.387-15.304-14.387s-0.165-8.238-6.12-18.334c-3.542-6.01-15.352-14.787-15.352-14.787l-5.258-21.243&#xD;&#xA;&#x9;L100.41,14.404L95.517,16.803L95.517,16.803z"/>
    <path id="ID0.876089540310204_1_" fill="#FFFFFF" d="M139.119,55.255l-4.564-3.795l-16.762,4.893c0,0,0,6.288-8.03,8.03&#xD;&#xA;&#x9;c-8.036,1.75-20.616-4.187-20.616-4.187L74.83,66.481c0,0-15.516,1.705-16.07,11.182c-1.238,21.062,24.604,29.842,34.396,30.401&#xD;&#xA;&#x9;c5.343,0.308,15.144-0.622,22.577-2.099c32.645-5.947,41.469-25.596,39.188-36.107c-2.284-10.508-14.672-13.232-14.672-13.232&#xD;&#xA;&#x9;L139.119,55.255L139.119,55.255z"/>
    <path id="ID0.44282719027251005_1_" fill="none" stroke="#231F20" stroke-width="1.2" d="M18.215,75.647&#xD;&#xA;&#x9;c0,0,7.553,0.688,10.986,0.493c3.43-0.196,10.1-1.079,10.1-1.079"/>
    <path id="ID0.893105489667505_1_" fill="none" stroke="#231F20" stroke-width="1.2" d="M148.748,65.563c0,0,8.365-1.367,12.613-2.85&#xD;&#xA;&#x9;c4.992-1.731,8.354-4.68,8.354-4.68"/>
    <path id="ID0.03574043000116944_1_" fill="none" stroke="#231F20" stroke-width="1.2" d="M39.664,67.839&#xD;&#xA;&#x9;c0,0-4.384-3.269-11.248-6.308c-7.603-3.367-11.778-4.235-11.778-4.235"/>
    <path id="ID0.6674723788164556_1_" fill="none" stroke="#231F20" stroke-width="1.2" d="M149.596,76.506&#xD;&#xA;&#x9;c0,0,5.014,2.029,10.175,2.547c5.095,0.508,8.544,0.202,8.544,0.202"/>
    <path id="ID0.12165586883202195_1_" fill="none" stroke="#000000" stroke-linecap="round" d="M94.856,16.906&#xD;&#xA;&#x9;c5.222,1.287,7.147,2.701,7.147,2.701"/>
    <path id="ID0.178104005753994_1_" fill="none" stroke="#000000" d="M60.924,15.935l11.141,8.014"/>
    <path id="ID0.7735752793960273_1_" fill="#FFFFFF" stroke="#231F20" d="M130.697,37.417c5.377,8.236,5.577,17.638,0.445,20.991&#xD;&#xA;&#x9;c-5.137,3.356-13.656-0.609-19.041-8.851c-5.394-8.238-5.584-17.633-0.448-20.991C116.785,25.214,125.314,29.175,130.697,37.417&#xD;&#xA;&#x9;L130.697,37.417z"/>
    <path id="ID0.19106501014903188_1_" fill="#231F20" d="M129.316,50.578c0,1.985-1.475,3.597-3.311,3.597&#xD;&#xA;&#x9;c-1.826,0-3.315-1.612-3.315-3.597c0-1.986,1.489-3.602,3.315-3.602C127.842,46.976,129.316,48.591,129.316,50.578"/>
    <path id="ID0.06283409334719181_1_" fill="#FFFFFF" stroke="#231F20" d="M86.612,43.4c5.381,8.238,4.815,18.136-1.253,22.095&#xD;&#xA;&#x9;c-6.072,3.971-15.356,0.5-20.735-7.738c-5.384-8.238-4.825-18.132,1.247-22.099C71.945,31.693,81.227,35.158,86.612,43.4&#xD;&#xA;&#x9;L86.612,43.4z"/>
    <path id="ID0.716460831463337_1_" fill="#231F20" d="M83.324,54.227c0,1.988-1.477,3.6-3.313,3.6c-1.824,0-3.314-1.615-3.314-3.6&#xD;&#xA;&#x9;c0-1.985,1.49-3.599,3.314-3.599C81.844,50.628,83.324,52.242,83.324,54.227"/>
    <path id="ID0.5430324394255877_1_" fill="#5E4A42" stroke="#000000" d="M108.494,60.514c3.409,0,8.376-0.521,8.637,1.047&#xD;&#xA;&#x9;c0.264,1.572-3.143,7.729-5.494,7.99c-2.359,0.262-11.264-4.327-11.393-7.207C100.108,59.465,105.348,60.514,108.494,60.514&#xD;&#xA;&#x9;L108.494,60.514z"/>
    <path id="ID0.5547774969600141_1_" fill="none" stroke="#231F20" stroke-width="1.2" d="M84.603,73.956&#xD;&#xA;&#x9;c0,0,19.027,5.616,26.144,7.166c7.113,1.549,19.955,3.098,19.955,3.098s-14.693,18.84-31.865,14.057&#xD;&#xA;&#x9;C81.664,93.5,81.975,82.672,84.603,73.956L84.603,73.956z"/>
    <path fill="#FAA51D" stroke="#000000" stroke-width="1.2" d="M68.194,176.704c-0.01,0-0.02,0-0.03,0l-22.006-0.087&#xD;&#xA;&#x9;c-3.248-0.013-6.118-2.114-7.111-5.207c-0.993-3.092,0.117-6.473,2.75-8.373l16.191-11.691l-4.34-17.386&#xD;&#xA;&#x9;c-1.003-4.019,1.441-8.09,5.46-9.093c4.017-1.004,8.09,1.44,9.093,5.46l5.569,22.311c0.743,2.975-0.4,6.102-2.886,7.896&#xD;&#xA;&#x9;l-1.708,1.233c3.69,0.483,6.532,3.647,6.517,7.466C75.677,173.365,72.322,176.704,68.194,176.704L68.194,176.704z"/>
    <path id="ID0.7152078151702881_1_" fill="#FAA51D" stroke="#000000" d="M39.205,136.12c-4.441-0.83-9.754-2.408-14.237-6.442&#xD;&#xA;&#x9;c-10.025-9.024-13.229-23.908-20.316-20.07c-7.092,3.84-6.955,27.888,15.36,35.296c7.69,2.559,14.707,2.568,20.396,2.414&#xD;&#xA;&#x9;c1.491-0.047,14.19-1.203,18.534-7.492c4.342-6.289,1.322-7.856-0.165-8.725C57.287,130.233,45.486,137.292,39.205,136.12&#xD;&#xA;&#x9;L39.205,136.12z"/>
    <path id="ID0.4691764716990292_1_" fill="#FFFFFF" d="M5.688,110.076c-3.658,1.128-5.655,9.191-3.818,15.602&#xD;&#xA;&#x9;c1.836,6.418,4.844,9.235,7.104,11.766c2.811,1.909-1.323-4.417,2.504-7.632c3.815-3.207,10.542-1.681,10.542-1.681&#xD;&#xA;&#x9;s-5.349-7.331-8.403-11.762C10.726,112.12,9.593,109.153,5.688,110.076L5.688,110.076z"/>
    <path id="ID0.26425604708492756_1_" fill="#FAA51D" stroke="#231F20" stroke-width="1.2" d="M83.874,141.586&#xD;&#xA;&#x9;c2.185-1.678,4.408-4.418,7.267-8.668c2.383-3.543,4.965-10.257,4.965-10.257c1.608-4.636,3.557-12.093-3.498-13.417&#xD;&#xA;&#x9;c-2.855-0.535-7.501-0.18-14.104-1.427c-6.607-1.253-12.501-4.638-17.501,4.106c-4.998,8.748-17.636,15.209-1.942,30.458&#xD;&#xA;&#x9;L83.874,141.586z"/>
    <path fill="#FAA51D" stroke="#000000" stroke-width="1.2" d="M72.058,169.705c-1.53,0-3.073-0.467-4.405-1.436l-7.562-5.5&#xD;&#xA;&#x9;c-0.267-0.194-0.521-0.405-0.759-0.633l-5.786-5.508c-2.168-2.064-2.901-5.22-1.866-8.028c1.036-2.808,3.643-4.731,6.631-4.894&#xD;&#xA;&#x9;l9.793-0.529l-3.249-2.892c-3.094-2.755-3.369-7.495-0.615-10.589c2.755-3.096,7.495-3.368,10.589-0.616l16.85,14.999&#xD;&#xA;&#x9;c2.27,2.021,3.097,5.212,2.093,8.08s-3.64,4.848-6.674,5.012l-9.063,0.49c1.955,2.567,2.09,6.21,0.095,8.954&#xD;&#xA;&#x9;C76.662,168.633,74.376,169.704,72.058,169.705L72.058,169.705z"/>
    <path id="ID0.203311821911484_1_" fill="#FFFFFF" d="M92.149,129.49c0,0,4.542-4.892-4.54-9.778&#xD;&#xA;&#x9;c-9.082-4.886-13.265-0.031-16.07,2.797c-4.862,4.883,6.331,12.158,6.331,12.158l5.841,5.892c0,0,3.195-3.028,4.596-5.478&#xD;&#xA;&#x9;C89.912,132.848,92.149,129.49,92.149,129.49"/>
    <ellipse transform="matrix(0.7127 0.7015 -0.7015 0.7127 112.0048 -4.4529)" fill="#FAA51D" cx="61.438" cy="134.497" rx="9.811" ry="8.535"/>
    <path fill="#FAA51D" stroke="#000000" stroke-width="1.2" d="M82.611,143.542c-0.768,0-1.548-0.137-2.308-0.426l-19.353-7.354&#xD;&#xA;&#x9;c-1.715-0.651-3.075-1.998-3.744-3.707c-0.669-1.708-0.584-3.62,0.232-5.263l7.805-15.699c1.599-3.214,5.502-4.523,8.714-2.927&#xD;&#xA;&#x9;c3.215,1.598,4.525,5.5,2.927,8.714l-4.612,9.277l12.647,4.806c3.356,1.275,5.043,5.029,3.768,8.385&#xD;&#xA;&#x9;C87.701,141.944,85.231,143.542,82.611,143.542L82.611,143.542z"/>
  </g>
</svg>