<svg version="1.1" x="0px" y="0px" width="800px" height="600px" viewBox="-316.364 -209.963 800 600" enable-background="new -316.364 -209.963 800 600" xml:space="preserve" xmlns="http://www.w3.org/2000/svg" xmlns:xlink="http://www.w3.org/1999/xlink" xmlns:a="http://ns.adobe.com/AdobeSVGViewerExtensions/3.0/">
  <defs/>
  <g>
    <path fill="#FAA51D" stroke="#000000" stroke-width="1.2" d="M99.107,138.314c-0.41,0-0.826-0.039-1.244-0.12l-18.811-3.647&#xD;&#xA;&#x9;c-2.069-0.401-3.815-1.78-4.685-3.7c-0.869-1.921-0.753-4.143,0.311-5.962l8.851-15.135c1.813-3.099,5.794-4.141,8.892-2.33&#xD;&#xA;&#x9;c3.1,1.813,4.143,5.794,2.33,8.893l-4.221,7.218l9.807,1.902c3.523,0.683,5.826,4.094,5.144,7.618&#xD;&#xA;&#x9;C104.878,136.157,102.157,138.314,99.107,138.314L99.107,138.314z"/>
    <g>
      <polyline fill="none" stroke="#000000" stroke-width="15" stroke-linecap="round" stroke-linejoin="round" points="70.654,113.214 &#xD;&#xA;&#x9;&#x9;65.311,128.893 68.271,145.143 &#x9;"/>
      <polyline fill="none" stroke="#FAA51D" stroke-width="13" stroke-linecap="round" stroke-linejoin="round" points="70.654,113.214 &#xD;&#xA;&#x9;&#x9;65.311,128.893 68.271,145.143 &#x9;"/>
    </g>
    <path id="ID0.4675603983923793_1_" fill="#FAA51D" stroke="#231F20" stroke-width="1.2" d="M96.667,16.803&#xD;&#xA;&#x9;c-2.832-0.263-8.734-0.581-11.986-0.425c-8.694,0.414-16.961,3.545-16.961,3.545L43.78,4.3l4.109,34.768&#xD;&#xA;&#x9;c1.188-1.439-19.41,23.545-6.397,44.546c13.021,21.012,40.886,30.375,75.375,23.523c34.49-6.857,42.717-26.722,40.432-37.23&#xD;&#xA;&#x9;c-2.285-10.508-15.305-14.387-15.305-14.387s-0.164-8.238-6.119-18.334c-3.543-6.01-15.352-14.787-15.352-14.787l-5.258-21.243&#xD;&#xA;&#x9;l-13.703,13.248L96.667,16.803L96.667,16.803z"/>
    <path id="ID0.876089540310204_1_" fill="#FFFFFF" d="M140.271,55.255l-4.564-3.795l-16.762,4.893c0,0,0,6.288-8.031,8.03&#xD;&#xA;&#x9;c-8.035,1.75-20.615-4.187-20.615-4.187l-14.317,6.284c0,0-15.516,1.705-16.07,11.182c-1.238,21.062,24.604,29.842,34.395,30.401&#xD;&#xA;&#x9;c5.344,0.308,15.145-0.622,22.578-2.099c32.645-5.947,41.469-25.596,39.188-36.107C153.787,59.35,141.4,56.625,141.4,56.625&#xD;&#xA;&#x9;L140.271,55.255L140.271,55.255z"/>
    <path id="ID0.44282719027251005_1_" fill="none" stroke="#231F20" stroke-width="1.2" d="M19.366,75.647&#xD;&#xA;&#x9;c0,0,7.553,0.688,10.986,0.493c3.43-0.196,10.1-1.079,10.1-1.079"/>
    <path id="ID0.893105489667505_1_" fill="none" stroke="#231F20" stroke-width="1.2" d="M149.9,65.563c0,0,8.365-1.367,12.613-2.85&#xD;&#xA;&#x9;c4.992-1.731,8.354-4.68,8.354-4.68"/>
    <path id="ID0.03574043000116944_1_" fill="none" stroke="#231F20" stroke-width="1.2" d="M40.815,67.839&#xD;&#xA;&#x9;c0,0-4.384-3.269-11.248-6.308c-7.603-3.367-11.778-4.235-11.778-4.235"/>
    <path id="ID0.6674723788164556_1_" fill="none" stroke="#231F20" stroke-width="1.2" d="M150.748,76.506&#xD;&#xA;&#x9;c0,0,5.014,2.029,10.174,2.547c5.096,0.508,8.545,0.202,8.545,0.202"/>
    <path id="ID0.12165586883202195_1_" fill="none" stroke="#000000" stroke-linecap="round" d="M96.007,16.906&#xD;&#xA;&#x9;c5.223,1.287,7.148,2.701,7.148,2.701"/>
    <path id="ID0.178104005753994_1_" fill="none" stroke="#000000" d="M62.075,15.935l11.141,8.014"/>
    <path id="ID0.7735752793960273_1_" fill="#FFFFFF" stroke="#231F20" d="M131.849,37.417c5.377,8.236,5.576,17.638,0.445,20.991&#xD;&#xA;&#x9;c-5.137,3.356-13.656-0.609-19.041-8.851c-5.395-8.238-5.584-17.633-0.449-20.991C117.937,25.214,126.466,29.175,131.849,37.417&#xD;&#xA;&#x9;L131.849,37.417z"/>
    <path id="ID0.19106501014903188_1_" fill="#231F20" d="M130.468,50.578c0,1.985-1.475,3.597-3.311,3.597&#xD;&#xA;&#x9;c-1.826,0-3.316-1.612-3.316-3.597c0-1.986,1.49-3.602,3.316-3.602C128.994,46.976,130.468,48.591,130.468,50.578"/>
    <path id="ID0.06283409334719181_1_" fill="#FFFFFF" stroke="#231F20" d="M87.763,43.4c5.381,8.238,4.816,18.136-1.252,22.095&#xD;&#xA;&#x9;c-6.073,3.971-15.357,0.5-20.736-7.738c-5.384-8.238-4.825-18.132,1.247-22.099C73.097,31.693,82.378,35.158,87.763,43.4&#xD;&#xA;&#x9;L87.763,43.4z"/>
    <path id="ID0.716460831463337_1_" fill="#231F20" d="M84.476,54.227c0,1.988-1.477,3.6-3.313,3.6c-1.824,0-3.314-1.615-3.314-3.6&#xD;&#xA;&#x9;c0-1.985,1.49-3.599,3.314-3.599C82.995,50.628,84.476,52.242,84.476,54.227"/>
    <path id="ID0.5430324394255877_1_" fill="#5E4A42" stroke="#000000" d="M109.646,60.514c3.408,0,8.375-0.521,8.637,1.047&#xD;&#xA;&#x9;c0.264,1.572-3.143,7.729-5.494,7.99c-2.359,0.262-11.264-4.327-11.393-7.207C101.259,59.465,106.5,60.514,109.646,60.514&#xD;&#xA;&#x9;L109.646,60.514z"/>
    <path id="ID0.5547774969600141_1_" fill="none" stroke="#231F20" stroke-width="1.2" d="M85.753,73.956&#xD;&#xA;&#x9;c0,0,19.027,5.616,26.145,7.166c7.113,1.549,19.955,3.098,19.955,3.098s-14.693,18.84-31.865,14.057&#xD;&#xA;&#x9;C82.815,93.5,83.126,82.672,85.753,73.956L85.753,73.956z"/>
    <path fill="#FAA51D" stroke="#000000" stroke-width="1.2" d="M56.345,180.704c-0.01,0-0.02,0-0.03,0l-22.006-0.087&#xD;&#xA;&#x9;c-3.216-0.013-6.065-2.074-7.084-5.125c-1.019-3.05,0.021-6.41,2.584-8.353l21.007-15.92l3.892-20.477&#xD;&#xA;&#x9;c0.774-4.069,4.7-6.738,8.769-5.968c4.069,0.773,6.741,4.699,5.968,8.769l-4.431,23.311c-0.347,1.824-1.358,3.455-2.838,4.577&#xD;&#xA;&#x9;l-5.641,4.274c4.067,0.102,7.326,3.439,7.31,7.527C63.828,177.365,60.474,180.704,56.345,180.704L56.345,180.704z"/>
    <path id="ID0.7152078151702881_1_" fill="#FAA51D" stroke="#000000" d="M41.457,140.77c-4.516-0.151-10.005-0.912-15.045-4.225&#xD;&#xA;&#x9;c-11.271-7.411-16.68-21.643-23.108-16.781c-6.433,4.864-2.675,28.617,20.501,32.58c7.988,1.371,14.926,0.323,20.527-0.687&#xD;&#xA;&#x9;c1.467-0.271,13.847-3.326,17.194-10.198c3.345-6.871,0.124-7.966-1.478-8.601C58.446,132.226,47.843,140.982,41.457,140.77&#xD;&#xA;&#x9;L41.457,140.77z"/>
    <path id="ID0.4691764716990292_1_" fill="#FFFFFF" d="M4.4,120.072c-3.447,1.666-4.206,9.938-1.425,15.999&#xD;&#xA;&#x9;c2.782,6.067,6.18,8.4,8.795,10.561c3.066,1.465-1.974-4.167,1.326-7.922c3.289-3.745,10.168-3.249,10.168-3.249&#xD;&#xA;&#x9;s-6.392-6.441-10.079-10.361C9.688,121.333,8.121,118.572,4.4,120.072L4.4,120.072z"/>
    <path id="ID0.26425604708492756_1_" fill="#FAA51D" stroke="#231F20" stroke-width="1.2" d="M85.025,141.586&#xD;&#xA;&#x9;c2.186-1.678,4.408-4.418,7.268-8.668c2.383-3.543,4.965-10.257,4.965-10.257c1.607-4.636,3.557-12.093-3.498-13.417&#xD;&#xA;&#x9;c-2.855-0.535-7.502-0.18-14.105-1.427c-6.607-1.253-12.501-4.638-17.501,4.106c-4.998,8.748-17.636,15.209-1.942,30.458&#xD;&#xA;&#x9;L85.025,141.586z"/>
    <path fill="#FAA51D" stroke="#000000" stroke-width="1.2" d="M82.209,167.705c-1.388,0-2.792-0.385-4.047-1.19l-8.562-5.5&#xD;&#xA;&#x9;c-0.032-0.021-0.064-0.042-0.096-0.063l-6.786-4.508c-2.571-1.708-3.833-4.816-3.18-7.834c0.653-3.017,3.088-5.325,6.135-5.817&#xD;&#xA;&#x9;l3.7-0.597l-1.52-0.701c-3.761-1.734-5.404-6.19-3.669-9.951c1.735-3.762,6.188-5.405,9.952-3.67l23.85,10.999&#xD;&#xA;&#x9;c2.996,1.382,4.737,4.559,4.289,7.828c-0.447,3.269-2.979,5.861-6.235,6.387l-8.922,1.439c2.787,2.4,3.454,6.548,1.408,9.731&#xD;&#xA;&#x9;C87.093,166.488,84.676,167.705,82.209,167.705L82.209,167.705z"/>
    <path id="ID0.203311821911484_1_" fill="#FFFFFF" d="M93.3,129.49c0,0,4.543-4.892-4.539-9.778&#xD;&#xA;&#x9;c-9.083-4.886-13.265-0.031-16.071,2.797c-4.862,4.883,6.331,12.158,6.331,12.158l5.841,5.892c0,0,3.195-3.028,4.596-5.478&#xD;&#xA;&#x9;C91.064,132.848,93.3,129.49,93.3,129.49"/>
    <ellipse transform="matrix(0.7127 0.7015 -0.7015 0.7127 112.3356 -5.2606)" fill="#FAA51D" cx="62.589" cy="134.497" rx="9.811" ry="8.535"/>
    <path fill="#FAA51D" stroke="#000000" stroke-width="1.2" d="M73.427,145.743c-1.738,0-3.471-0.692-4.75-2.062l-14.135-15.126&#xD;&#xA;&#x9;c-1.253-1.341-1.881-3.148-1.729-4.978c0.152-1.828,1.07-3.507,2.527-4.622l13.922-10.656c2.851-2.183,6.93-1.641,9.112,1.21&#xD;&#xA;&#x9;c2.182,2.852,1.64,6.931-1.211,9.112l-8.227,6.298l9.238,9.885c2.451,2.623,2.312,6.736-0.311,9.188&#xD;&#xA;&#x9;C76.61,145.163,75.017,145.743,73.427,145.743L73.427,145.743z"/>
  </g>
</svg>