<svg version="1.1" x="0px" y="0px" width="800px" height="600px" viewBox="-314.861 -207.796 800 600" enable-background="new -314.861 -207.796 800 600" xml:space="preserve" xmlns="http://www.w3.org/2000/svg" xmlns:xlink="http://www.w3.org/1999/xlink" xmlns:a="http://ns.adobe.com/AdobeSVGViewerExtensions/3.0/">
  <defs/>
  <g>
    <path fill="#FAA51D" stroke="#000000" stroke-width="1.2" d="M95.338,137.058c-3.146,0-5.867-2.268-6.403-5.405l-2.66-15.567&#xD;&#xA;&#x9;c-0.604-3.538,1.774-6.897,5.313-7.502c3.534-0.606,6.897,1.773,7.502,5.313l1.681,9.836l14.685-0.854&#xD;&#xA;&#x9;c3.583-0.189,6.658,2.528,6.866,6.112c0.209,3.583-2.527,6.657-6.111,6.866l-20.49,1.191&#xD;&#xA;&#x9;C95.592,137.054,95.464,137.058,95.338,137.058L95.338,137.058z"/>
    <path id="ID0.4675603983923793_1_" fill="#FAA51D" stroke="#231F20" stroke-width="1.2" d="M98.962,16.803&#xD;&#xA;&#x9;c-2.832-0.263-8.735-0.581-11.986-0.425c-8.694,0.414-16.962,3.545-16.962,3.545L46.074,4.3l4.109,34.768&#xD;&#xA;&#x9;c1.188-1.439-19.41,23.545-6.397,44.546c13.021,21.012,40.886,30.375,75.374,23.523c34.49-6.857,42.717-26.722,40.432-37.23&#xD;&#xA;&#x9;c-2.284-10.508-15.304-14.387-15.304-14.387s-0.165-8.238-6.12-18.334c-3.542-6.01-15.352-14.787-15.352-14.787l-5.258-21.243&#xD;&#xA;&#x9;l-13.703,13.248L98.962,16.803L98.962,16.803z"/>
    <path id="ID0.876089540310204_1_" fill="#FFFFFF" d="M142.564,55.255L138,51.46l-16.762,4.893c0,0,0,6.288-8.03,8.03&#xD;&#xA;&#x9;c-8.036,1.75-20.616-4.187-20.616-4.187l-14.316,6.284c0,0-15.516,1.705-16.07,11.182c-1.238,21.062,24.604,29.842,34.396,30.401&#xD;&#xA;&#x9;c5.343,0.308,15.144-0.622,22.577-2.099c32.645-5.947,41.469-25.596,39.188-36.107c-2.284-10.508-14.672-13.232-14.672-13.232&#xD;&#xA;&#x9;L142.564,55.255L142.564,55.255z"/>
    <path id="ID0.44282719027251005_1_" fill="none" stroke="#231F20" stroke-width="1.2" d="M21.66,75.647&#xD;&#xA;&#x9;c0,0,7.553,0.688,10.986,0.493c3.43-0.196,10.1-1.079,10.1-1.079"/>
    <path id="ID0.893105489667505_1_" fill="none" stroke="#231F20" stroke-width="1.2" d="M152.193,65.563c0,0,8.365-1.367,12.613-2.85&#xD;&#xA;&#x9;c4.992-1.731,8.354-4.68,8.354-4.68"/>
    <path id="ID0.03574043000116944_1_" fill="none" stroke="#231F20" stroke-width="1.2" d="M43.109,67.839&#xD;&#xA;&#x9;c0,0-4.384-3.269-11.248-6.308c-7.603-3.367-11.778-4.235-11.778-4.235"/>
    <path id="ID0.6674723788164556_1_" fill="none" stroke="#231F20" stroke-width="1.2" d="M153.041,76.506&#xD;&#xA;&#x9;c0,0,5.014,2.029,10.175,2.547c5.095,0.508,8.544,0.202,8.544,0.202"/>
    <path id="ID0.12165586883202195_1_" fill="none" stroke="#000000" stroke-linecap="round" d="M98.302,16.906&#xD;&#xA;&#x9;c5.222,1.287,7.147,2.701,7.147,2.701"/>
    <path id="ID0.178104005753994_1_" fill="none" stroke="#000000" d="M64.369,15.935l11.141,8.014"/>
    <path id="ID0.7735752793960273_1_" fill="#FFFFFF" stroke="#231F20" d="M134.143,37.417c5.377,8.236,5.577,17.638,0.445,20.991&#xD;&#xA;&#x9;c-5.137,3.356-13.656-0.609-19.041-8.851c-5.394-8.238-5.584-17.633-0.448-20.991C120.23,25.214,128.76,29.175,134.143,37.417&#xD;&#xA;&#x9;L134.143,37.417z"/>
    <path id="ID0.19106501014903188_1_" fill="#231F20" d="M132.762,50.578c0,1.985-1.475,3.597-3.311,3.597&#xD;&#xA;&#x9;c-1.826,0-3.315-1.612-3.315-3.597c0-1.986,1.489-3.602,3.315-3.602C131.287,46.976,132.762,48.591,132.762,50.578"/>
    <path id="ID0.06283409334719181_1_" fill="#FFFFFF" stroke="#231F20" d="M90.058,43.4c5.381,8.238,4.815,18.136-1.253,22.095&#xD;&#xA;&#x9;c-6.072,3.971-15.356,0.5-20.735-7.738c-5.384-8.238-4.825-18.132,1.247-22.099C75.391,31.693,84.672,35.158,90.058,43.4&#xD;&#xA;&#x9;L90.058,43.4z"/>
    <path id="ID0.716460831463337_1_" fill="#231F20" d="M86.77,54.227c0,1.988-1.477,3.6-3.313,3.6c-1.824,0-3.314-1.615-3.314-3.6&#xD;&#xA;&#x9;c0-1.985,1.49-3.599,3.314-3.599C85.289,50.628,86.77,52.242,86.77,54.227"/>
    <path id="ID0.5430324394255877_1_" fill="#5E4A42" stroke="#000000" d="M111.939,60.514c3.409,0,8.376-0.521,8.637,1.047&#xD;&#xA;&#x9;c0.264,1.572-3.143,7.729-5.494,7.99c-2.359,0.262-11.264-4.327-11.393-7.207C103.554,59.465,108.793,60.514,111.939,60.514&#xD;&#xA;&#x9;L111.939,60.514z"/>
    <path id="ID0.5547774969600141_1_" fill="none" stroke="#231F20" stroke-width="1.2" d="M88.048,73.956&#xD;&#xA;&#x9;c0,0,19.027,5.616,26.144,7.166c7.113,1.549,19.955,3.098,19.955,3.098s-14.693,18.84-31.865,14.057&#xD;&#xA;&#x9;C85.109,93.5,85.42,82.672,88.048,73.956L88.048,73.956z"/>
    <path fill="#FAA51D" stroke="#000000" stroke-width="1.2" d="M41.639,183.704c-0.007,0-0.013,0-0.02,0l-16.348-0.041&#xD;&#xA;&#x9;c-1.529-0.004-3.021-0.476-4.275-1.351l-8.658-6.046c-2.136-1.492-3.345-3.986-3.193-6.587c0.152-2.602,1.644-4.938,3.939-6.17&#xD;&#xA;&#x9;l26.11-14.021L58.73,127.2c2.729-3.115,7.468-3.427,10.583-0.697c3.115,2.73,3.427,7.469,0.697,10.584L49.58,160.397&#xD;&#xA;&#x9;c-0.592,0.676-1.301,1.239-2.092,1.664l-12.34,6.626l6.51,0.017c4.142,0.011,7.491,3.377,7.481,7.519&#xD;&#xA;&#x9;C49.128,180.358,45.772,183.704,41.639,183.704L41.639,183.704z"/>
    <path id="ID0.7152078151702881_1_" fill="#FAA51D" stroke="#000000" d="M44.359,140.408c-4.328,1.297-9.773,2.327-15.607,0.796&#xD;&#xA;&#x9;c-13.046-3.429-22.712-15.191-27.253-8.533c-4.545,6.662,6.594,27.976,29.823,24.337c8.008-1.248,14.25-4.454,19.235-7.197&#xD;&#xA;&#x9;c1.304-0.725,12.063-7.57,13.042-15.151c0.978-7.579-2.424-7.589-4.144-7.679C57.735,126.891,50.479,138.572,44.359,140.408&#xD;&#xA;&#x9;L44.359,140.408z"/>
    <path id="ID0.4691764716990292_1_" fill="#FFFFFF" d="M2.635,132.612c-2.735,2.679-0.816,10.762,3.753,15.617&#xD;&#xA;&#x9;c4.572,4.864,8.537,5.99,11.705,7.204c3.373,0.41-3.2-3.319-1.271-7.931c1.922-4.599,8.601-6.323,8.601-6.323&#xD;&#xA;&#x9;s-8.113-4.066-12.858-6.605C8.049,132.122,5.683,130.003,2.635,132.612L2.635,132.612z"/>
    <path id="ID0.26425604708492756_1_" fill="#FAA51D" stroke="#231F20" stroke-width="1.2" d="M87.319,141.586&#xD;&#xA;&#x9;c2.185-1.678,4.408-4.418,7.267-8.668c2.383-3.543,4.965-10.257,4.965-10.257c1.608-4.636,3.557-12.093-3.498-13.417&#xD;&#xA;&#x9;c-2.855-0.535-7.501-0.18-14.104-1.427c-6.607-1.253-12.501-4.638-17.501,4.106c-4.998,8.748-17.636,15.209-1.942,30.458&#xD;&#xA;&#x9;L87.319,141.586z"/>
    <path fill="#FAA51D" stroke="#000000" stroke-width="1.2" d="M101.506,170.706c-1.004,0-2.025-0.203-3.004-0.632l-12.562-5.5&#xD;&#xA;&#x9;c-0.147-0.064-0.292-0.134-0.436-0.208l-6.786-3.508c-2.704-1.397-4.294-4.29-4.027-7.321c0.223-2.524,1.698-4.729,3.863-5.916&#xD;&#xA;&#x9;l-5.572-1.801c-3.941-1.273-6.104-5.501-4.831-9.442c1.274-3.942,5.501-6.105,9.443-4.831l27.851,8.999&#xD;&#xA;&#x9;c3.11,1.005,5.212,3.91,5.193,7.18c-0.02,3.27-2.153,6.15-5.275,7.12l-2.484,0.771l1.639,0.718c3.795,1.661,5.523,6.084,3.862,9.878&#xD;&#xA;&#x9;C107.147,169.027,104.395,170.706,101.506,170.706L101.506,170.706z"/>
    <path id="ID0.203311821911484_1_" fill="#FFFFFF" d="M95.595,129.49c0,0,4.542-4.892-4.54-9.778&#xD;&#xA;&#x9;c-9.082-4.886-13.265-0.031-16.07,2.797c-4.862,4.883,6.331,12.158,6.331,12.158l8.823,1.412c0,0,0.213,1.451,1.613-0.998&#xD;&#xA;&#x9;C93.357,132.848,95.595,129.49,95.595,129.49"/>
    <ellipse transform="matrix(0.7127 0.7015 -0.7015 0.7127 114.4314 -10.3774)" fill="#FAA51D" cx="69.883" cy="134.497" rx="9.811" ry="8.535"/>
    <path fill="#FAA51D" stroke="#000000" stroke-width="1.2" d="M51.252,144.043c-3.457,0-6.333-2.723-6.489-6.21l-0.836-18.723&#xD;&#xA;&#x9;c-0.131-2.935,1.723-5.593,4.522-6.484l18.512-5.892c3.421-1.085,7.077,0.803,8.165,4.223c1.089,3.421-0.802,7.077-4.223,8.166&#xD;&#xA;&#x9;l-13.768,4.381l0.614,13.749c0.16,3.586-2.617,6.623-6.204,6.783C51.449,144.042,51.35,144.043,51.252,144.043L51.252,144.043z"/>
  </g>
</svg>