<svg version="1.1" width="204" height="54" viewBox="2 -1 204 54" xmlns="http://www.w3.org/2000/svg" xmlns:xlink="http://www.w3.org/1999/xlink">
  <defs>
    <linearGradient id="grad_1" x1="13.0479" y1="75.0693" x2="133.0479" y2="75.0693" gradientUnits="userSpaceOnUse">
      <stop offset="0" stop-color="#FBB040"/>
      <stop offset="1" stop-color="#F15A29"/>
    </linearGradient>
    <linearGradient id="grad_2" x1="17.5508" y1="75.0703" x2="128.5439" y2="75.0703" gradientUnits="userSpaceOnUse">
      <stop offset="0" stop-color="#ED7340"/>
      <stop offset="0.5181" stop-color="#F4AA46"/>
      <stop offset="1" stop-color="#F29746"/>
    </linearGradient>
  </defs>
  <!-- Exported by Scratch - http://scratch.mit.edu/ -->
  <g id="ID0.271464298479259" transform="matrix(1, 0, 0, 1, -107, 0)">
    <path id="ID0.1277014105580747" fill="url(#grad_1)" d="M 106.902 42.787 L 39.191 42.787 C 24.775 42.787 13.048 54.515 13.048 68.931 C 13.048 83.347 24.776 95.075 39.191 95.075 L 106.902 95.075 C 121.318 95.075 133.048 83.346 133.048 68.931 C 133.047 54.514 121.318 42.787 106.902 42.787 Z " transform="matrix(1, 0, 0, 1, 94, -42)"/>
    <path id="ID0.045114106964319944" fill="url(#grad_2)" d="M 128.544 68.929 C 128.544 80.882 118.855 90.570 106.902 90.570 L 39.191 90.570 C 27.239 90.570 17.551 80.882 17.551 68.929 L 17.551 68.929 C 17.551 56.978 27.239 47.289 39.191 47.289 L 106.902 47.289 C 118.854 47.289 128.544 56.978 128.544 68.929 L 128.544 68.929 Z " transform="matrix(1, 0, 0, 1, 94, -42)"/>
  </g>
  <text id="ID0.5695652943104506" fill="#000000" x="235" y="181.25" text-anchor="start" font-family="Helvetica" font-size="22" transform="matrix(1, 0, 0, 1, 22, 13.15)">START</text>
</svg>