<svg version="1.1" x="0px" y="0px" width="800px" height="600px" viewBox="-315.84 -208.698 800 600" enable-background="new -315.84 -208.698 800 600" xml:space="preserve" xmlns="http://www.w3.org/2000/svg" xmlns:xlink="http://www.w3.org/1999/xlink" xmlns:a="http://ns.adobe.com/AdobeSVGViewerExtensions/3.0/">
  <defs/>
  <g>
    <path fill="#FAA51D" stroke="#000000" stroke-width="1.2" d="M104.833,136.875c-1.811,0-3.59-0.757-4.854-2.174l-13.002-14.579&#xD;&#xA;&#x9;c-2.389-2.679-2.154-6.788,0.525-9.178c2.68-2.389,6.787-2.154,9.178,0.525l9.761,10.945l16.14-7.662&#xD;&#xA;&#x9;c3.242-1.537,7.12-0.159,8.659,3.084c1.54,3.243,0.159,7.12-3.085,8.66l-20.537,9.75&#xD;&#xA;&#x9;C106.727,136.669,105.776,136.875,104.833,136.875L104.833,136.875z"/>
    <path id="ID0.7152078151702881_1_" fill="#FAA51D" stroke="#000000" d="M39.918,135.738c-4.474-0.63-9.852-1.97-14.511-5.799&#xD;&#xA;&#x9;c-10.419-8.567-14.287-23.292-21.195-19.142c-6.913,4.154-5.7,28.172,16.925,34.572c7.798,2.213,14.807,1.909,20.483,1.5&#xD;&#xA;&#x9;c1.488-0.113,14.123-1.837,18.18-8.314c4.056-6.478,0.97-7.907-0.555-8.708C57.718,129.047,46.245,136.627,39.918,135.738&#xD;&#xA;&#x9;L39.918,135.738z"/>
    <path id="ID0.4691764716990292_1_" fill="#FFFFFF" d="M5.27,111.219c-3.604,1.291-5.238,9.437-3.116,15.758&#xD;&#xA;&#x9;c2.121,6.329,5.252,9.01,7.623,11.436c2.893,1.781-1.52-4.353,2.16-7.736c3.667-3.375,10.456-2.15,10.456-2.15&#xD;&#xA;&#x9;s-5.672-7.084-8.921-11.374C10.393,113.037,9.128,110.124,5.27,111.219L5.27,111.219z"/>
    <path id="ID0.4675603983923793_1_" fill="#FAA51D" stroke="#231F20" stroke-width="1.2" d="M96.882,16.803&#xD;&#xA;&#x9;c-2.832-0.263-8.735-0.581-11.986-0.425c-8.694,0.414-16.962,3.545-16.962,3.545L43.995,4.3l4.109,34.768&#xD;&#xA;&#x9;c1.188-1.439-19.41,23.545-6.397,44.546c13.021,21.012,40.886,30.375,75.374,23.523c34.49-6.857,42.717-26.722,40.432-37.23&#xD;&#xA;&#x9;c-2.284-10.508-15.304-14.387-15.304-14.387s-0.165-8.238-6.12-18.334c-3.542-6.01-15.352-14.787-15.352-14.787l-5.258-21.243&#xD;&#xA;&#x9;l-13.703,13.248L96.882,16.803L96.882,16.803z"/>
    <path id="ID0.876089540310204_1_" fill="#FFFFFF" d="M140.485,55.255l-4.564-3.795l-16.762,4.893c0,0,0,6.288-8.03,8.03&#xD;&#xA;&#x9;c-8.036,1.75-20.616-4.187-20.616-4.187l-14.316,6.284c0,0-15.516,1.705-16.07,11.182c-1.238,21.062,24.604,29.842,34.396,30.401&#xD;&#xA;&#x9;c5.343,0.308,15.144-0.622,22.577-2.099c32.645-5.947,41.469-25.596,39.188-36.107c-2.284-10.508-14.672-13.232-14.672-13.232&#xD;&#xA;&#x9;L140.485,55.255L140.485,55.255z"/>
    <path id="ID0.44282719027251005_1_" fill="none" stroke="#231F20" stroke-width="1.2" d="M19.581,75.647&#xD;&#xA;&#x9;c0,0,7.553,0.688,10.986,0.493c3.43-0.196,10.1-1.079,10.1-1.079"/>
    <path id="ID0.893105489667505_1_" fill="none" stroke="#231F20" stroke-width="1.2" d="M150.114,65.563c0,0,8.365-1.367,12.613-2.85&#xD;&#xA;&#x9;c4.992-1.731,8.354-4.68,8.354-4.68"/>
    <path id="ID0.03574043000116944_1_" fill="none" stroke="#231F20" stroke-width="1.2" d="M41.03,67.839&#xD;&#xA;&#x9;c0,0-4.384-3.269-11.248-6.308c-7.603-3.367-11.778-4.235-11.778-4.235"/>
    <path id="ID0.6674723788164556_1_" fill="none" stroke="#231F20" stroke-width="1.2" d="M150.961,76.506&#xD;&#xA;&#x9;c0,0,5.014,2.029,10.175,2.547c5.095,0.508,8.544,0.202,8.544,0.202"/>
    <path id="ID0.12165586883202195_1_" fill="none" stroke="#000000" stroke-linecap="round" d="M96.222,16.906&#xD;&#xA;&#x9;c5.222,1.287,7.147,2.701,7.147,2.701"/>
    <path id="ID0.178104005753994_1_" fill="none" stroke="#000000" d="M62.29,15.935l11.141,8.014"/>
    <path id="ID0.7735752793960273_1_" fill="#FFFFFF" stroke="#231F20" d="M132.063,37.417c5.377,8.236,5.577,17.638,0.445,20.991&#xD;&#xA;&#x9;c-5.137,3.356-13.656-0.609-19.041-8.851c-5.394-8.238-5.584-17.633-0.448-20.991C118.151,25.214,126.68,29.175,132.063,37.417&#xD;&#xA;&#x9;L132.063,37.417z"/>
    <path id="ID0.19106501014903188_1_" fill="#231F20" d="M130.682,50.578c0,1.985-1.475,3.597-3.311,3.597&#xD;&#xA;&#x9;c-1.826,0-3.315-1.612-3.315-3.597c0-1.986,1.489-3.602,3.315-3.602C129.208,46.976,130.682,48.591,130.682,50.578"/>
    <path id="ID0.06283409334719181_1_" fill="#FFFFFF" stroke="#231F20" d="M87.978,43.4c5.381,8.238,4.815,18.136-1.253,22.095&#xD;&#xA;&#x9;c-6.072,3.971-15.356,0.5-20.735-7.738c-5.384-8.238-4.825-18.132,1.247-22.099C73.311,31.693,82.592,35.158,87.978,43.4&#xD;&#xA;&#x9;L87.978,43.4z"/>
    <path id="ID0.716460831463337_1_" fill="#231F20" d="M84.69,54.227c0,1.988-1.477,3.6-3.313,3.6c-1.824,0-3.314-1.615-3.314-3.6&#xD;&#xA;&#x9;c0-1.985,1.49-3.599,3.314-3.599C83.209,50.628,84.69,52.242,84.69,54.227"/>
    <path id="ID0.5430324394255877_1_" fill="#5E4A42" stroke="#000000" d="M109.86,60.514c3.409,0,8.376-0.521,8.637,1.047&#xD;&#xA;&#x9;c0.264,1.572-3.143,7.729-5.494,7.99c-2.359,0.262-11.264-4.327-11.393-7.207C101.474,59.465,106.713,60.514,109.86,60.514&#xD;&#xA;&#x9;L109.86,60.514z"/>
    <path id="ID0.5547774969600141_1_" fill="none" stroke="#231F20" stroke-width="1.2" d="M85.968,73.956&#xD;&#xA;&#x9;c0,0,19.027,5.616,26.144,7.166c7.113,1.549,19.955,3.098,19.955,3.098s-14.693,18.84-31.865,14.057&#xD;&#xA;&#x9;C83.03,93.5,83.34,82.672,85.968,73.956L85.968,73.956z"/>
    <path fill="#FAA51D" stroke="#000000" stroke-width="1.2" d="M37.969,182.125c-0.1,0-0.199-0.002-0.3-0.006l-12.482-0.49&#xD;&#xA;&#x9;c-2.1-0.082-4.069-1.042-5.428-2.646l-7.229-8.532c-1.56-1.841-2.139-4.319-1.556-6.66c0.583-2.342,2.256-4.26,4.497-5.154&#xD;&#xA;&#x9;l28.89-11.533l18.569-15.528c3.178-2.657,7.908-2.235,10.565,0.941c2.657,3.178,2.235,7.907-0.942,10.564l-19.487,16.297&#xD;&#xA;&#x9;c-0.609,0.509-1.294,0.918-2.031,1.213l-16.06,6.411l3.283,0.129c4.139,0.162,7.362,3.649,7.2,7.788&#xD;&#xA;&#x9;C45.299,178.958,41.975,182.125,37.969,182.125L37.969,182.125z"/>
    <path id="ID0.26425604708492756_1_" fill="#FAA51D" stroke="#231F20" stroke-width="1.2" d="M85.24,141.586&#xD;&#xA;&#x9;c2.185-1.678,4.408-4.418,7.267-8.668c2.383-3.543,4.965-10.257,4.965-10.257c1.608-4.636,3.557-12.093-3.498-13.417&#xD;&#xA;&#x9;c-2.855-0.535-7.501-0.18-14.104-1.427c-6.607-1.253-12.501-4.638-17.501,4.106c-4.998,8.748-17.636,15.209-1.942,30.458&#xD;&#xA;&#x9;L85.24,141.586z"/>
    <path fill="#FAA51D" stroke="#000000" stroke-width="1.2" d="M110.375,176.704c-0.109,0-0.218-0.002-0.327-0.007l-23.31-1&#xD;&#xA;&#x9;c-2.608-0.112-4.971-1.572-6.237-3.854c-1.266-2.283-1.254-5.061,0.031-7.333l7.651-13.52l-21.05-4.889&#xD;&#xA;&#x9;c-4.035-0.938-6.546-4.968-5.609-9.002c0.938-4.034,4.964-6.549,9.002-5.609l30.821,7.158c2.304,0.535,4.22,2.125,5.171,4.29&#xD;&#xA;&#x9;c0.95,2.165,0.825,4.651-0.34,6.71l-6.558,11.588l11.069,0.475c4.139,0.178,7.349,3.677,7.172,7.814&#xD;&#xA;&#x9;C117.689,173.554,114.369,176.704,110.375,176.704L110.375,176.704z"/>
    <path id="ID0.203311821911484_1_" fill="#FFFFFF" d="M93.515,129.49c0,0,4.542-4.892-4.54-9.778&#xD;&#xA;&#x9;c-9.082-4.886-13.265-0.031-16.07,2.797c-4.862,4.883,6.331,9.158,6.331,9.158l5.841-0.108c0,0,5.195,1.972,6.596-0.478&#xD;&#xA;&#x9;C93.278,128.848,93.515,129.49,93.515,129.49"/>
    <ellipse transform="matrix(0.7127 0.7015 -0.7015 0.7127 115.2369 -8.3438)" fill="#FAA51D" cx="67.804" cy="136.497" rx="9.811" ry="8.535"/>
    <path fill="#FAA51D" stroke="#000000" stroke-width="1.2" d="M45.084,143.295c-0.045,0-0.091,0-0.136-0.001&#xD;&#xA;&#x9;c-3.589-0.074-6.439-3.044-6.365-6.633l0.415-20.13c0.066-3.192,2.441-5.865,5.604-6.305l20.085-2.791&#xD;&#xA;&#x9;c3.555-0.487,6.839,1.988,7.333,5.544c0.494,3.556-1.988,6.839-5.543,7.333l-14.595,2.027l-0.301,14.589&#xD;&#xA;&#x9;C51.507,140.473,48.611,143.295,45.084,143.295L45.084,143.295z"/>
  </g>
</svg>