<svg version="1.1" x="0px" y="0px" width="800px" height="600px" viewBox="-317.787 -208.796 800 600" enable-background="new -317.787 -208.796 800 600" xml:space="preserve" xmlns="http://www.w3.org/2000/svg" xmlns:xlink="http://www.w3.org/1999/xlink" xmlns:a="http://ns.adobe.com/AdobeSVGViewerExtensions/3.0/">
  <defs/>
  <g>
    <path fill="#FAA51D" stroke="#000000" stroke-width="1.2" d="M108.985,124.875c-0.276,0-0.554-0.018-0.831-0.054l-20.002-2.579&#xD;&#xA;&#x9;c-3.561-0.459-6.075-3.717-5.616-7.277s3.721-6.084,7.278-5.615l17.91,2.309l19.685-10.739c3.152-1.718,7.1-0.559,8.819,2.593&#xD;&#xA;&#x9;c1.719,3.151,0.559,7.1-2.593,8.819l-21.537,11.75C111.14,124.604,110.068,124.875,108.985,124.875L108.985,124.875z"/>
    <path id="ID0.7152078151702881_1_" fill="#FAA51D" stroke="#000000" d="M36.299,131.391c-4.243-1.552-9.223-3.986-12.979-8.704&#xD;&#xA;&#x9;c-8.398-10.557-9.102-25.765-16.725-23.149c-7.628,2.617-11.463,26.357,9.324,37.347c7.163,3.794,14.081,4.962,19.717,5.748&#xD;&#xA;&#x9;c1.479,0.2,14.194,1.156,19.517-4.33c5.32-5.486,2.601-7.529,1.277-8.632C55.105,128.57,42.301,133.583,36.299,131.391&#xD;&#xA;&#x9;L36.299,131.391z"/>
    <path id="ID0.4691764716990292_1_" fill="#FFFFFF" d="M7.542,100.171c-3.794,0.509-7.095,8.133-6.341,14.758&#xD;&#xA;&#x9;c0.751,6.633,3.253,9.908,5.064,12.776c2.457,2.347-0.576-4.574,3.729-7.114c4.292-2.533,10.675,0.083,10.675,0.083&#xD;&#xA;&#x9;s-4.066-8.113-6.347-12.987C12.172,103.019,11.544,99.906,7.542,100.171L7.542,100.171z"/>
    <path id="ID0.4675603983923793_1_" fill="#FAA51D" stroke="#231F20" stroke-width="1.2" d="M94.036,16.803&#xD;&#xA;&#x9;c-2.832-0.263-8.735-0.581-11.986-0.425c-8.694,0.414-16.962,3.545-16.962,3.545L41.148,4.3l4.109,34.768&#xD;&#xA;&#x9;c1.188-1.439-19.41,23.545-6.397,44.546c13.021,21.012,40.886,30.375,75.374,23.523c34.49-6.857,42.717-26.722,40.432-37.23&#xD;&#xA;&#x9;c-2.284-10.508-15.304-14.387-15.304-14.387s-0.165-8.238-6.12-18.334c-3.542-6.01-15.352-14.787-15.352-14.787l-5.258-21.243&#xD;&#xA;&#x9;L98.93,14.404L94.036,16.803L94.036,16.803z"/>
    <path id="ID0.876089540310204_1_" fill="#FFFFFF" d="M137.639,55.255l-4.564-3.795l-16.762,4.893c0,0,0,6.288-8.03,8.03&#xD;&#xA;&#x9;c-8.036,1.75-20.616-4.187-20.616-4.187L73.35,66.481c0,0-15.516,1.705-16.07,11.182c-1.238,21.062,24.604,29.842,34.396,30.401&#xD;&#xA;&#x9;c5.343,0.308,15.144-0.622,22.577-2.099c32.645-5.947,41.469-25.596,39.188-36.107c-2.284-10.508-14.672-13.232-14.672-13.232&#xD;&#xA;&#x9;L137.639,55.255L137.639,55.255z"/>
    <path id="ID0.44282719027251005_1_" fill="none" stroke="#231F20" stroke-width="1.2" d="M16.734,75.647&#xD;&#xA;&#x9;c0,0,7.553,0.688,10.986,0.493c3.43-0.196,10.1-1.079,10.1-1.079"/>
    <path id="ID0.893105489667505_1_" fill="none" stroke="#231F20" stroke-width="1.2" d="M147.268,65.563c0,0,8.365-1.367,12.613-2.85&#xD;&#xA;&#x9;c4.992-1.731,8.354-4.68,8.354-4.68"/>
    <path id="ID0.03574043000116944_1_" fill="none" stroke="#231F20" stroke-width="1.2" d="M38.184,67.839&#xD;&#xA;&#x9;c0,0-4.384-3.269-11.248-6.308c-7.603-3.367-11.778-4.235-11.778-4.235"/>
    <path id="ID0.6674723788164556_1_" fill="none" stroke="#231F20" stroke-width="1.2" d="M148.115,76.506&#xD;&#xA;&#x9;c0,0,5.014,2.029,10.175,2.547c5.095,0.508,8.544,0.202,8.544,0.202"/>
    <path id="ID0.12165586883202195_1_" fill="none" stroke="#000000" stroke-linecap="round" d="M93.376,16.906&#xD;&#xA;&#x9;c5.222,1.287,7.147,2.701,7.147,2.701"/>
    <path id="ID0.178104005753994_1_" fill="none" stroke="#000000" d="M59.443,15.935l11.141,8.014"/>
    <path id="ID0.7735752793960273_1_" fill="#FFFFFF" stroke="#231F20" d="M129.217,37.417c5.377,8.236,5.577,17.638,0.445,20.991&#xD;&#xA;&#x9;c-5.137,3.356-13.656-0.609-19.041-8.851c-5.394-8.238-5.584-17.633-0.448-20.991C115.305,25.214,123.834,29.175,129.217,37.417&#xD;&#xA;&#x9;L129.217,37.417z"/>
    <path id="ID0.19106501014903188_1_" fill="#231F20" d="M127.836,50.578c0,1.985-1.475,3.597-3.311,3.597&#xD;&#xA;&#x9;c-1.826,0-3.315-1.612-3.315-3.597c0-1.986,1.489-3.602,3.315-3.602C126.361,46.976,127.836,48.591,127.836,50.578"/>
    <path id="ID0.06283409334719181_1_" fill="#FFFFFF" stroke="#231F20" d="M85.132,43.4c5.381,8.238,4.815,18.136-1.253,22.095&#xD;&#xA;&#x9;c-6.072,3.971-15.356,0.5-20.735-7.738c-5.384-8.238-4.825-18.132,1.247-22.099C70.465,31.693,79.746,35.158,85.132,43.4&#xD;&#xA;&#x9;L85.132,43.4z"/>
    <path id="ID0.716460831463337_1_" fill="#231F20" d="M81.844,54.227c0,1.988-1.477,3.6-3.313,3.6c-1.824,0-3.314-1.615-3.314-3.6&#xD;&#xA;&#x9;c0-1.985,1.49-3.599,3.314-3.599C80.363,50.628,81.844,52.242,81.844,54.227"/>
    <path id="ID0.5430324394255877_1_" fill="#5E4A42" stroke="#000000" d="M107.014,60.514c3.409,0,8.376-0.521,8.637,1.047&#xD;&#xA;&#x9;c0.264,1.572-3.143,7.729-5.494,7.99c-2.359,0.262-11.264-4.327-11.393-7.207C98.628,59.465,103.867,60.514,107.014,60.514&#xD;&#xA;&#x9;L107.014,60.514z"/>
    <path id="ID0.5547774969600141_1_" fill="none" stroke="#231F20" stroke-width="1.2" d="M83.122,73.956&#xD;&#xA;&#x9;c0,0,19.027,5.616,26.144,7.166c7.113,1.549,19.955,3.098,19.955,3.098s-14.693,18.84-31.865,14.057&#xD;&#xA;&#x9;C80.184,93.5,80.494,82.672,83.122,73.956L83.122,73.956z"/>
    <path fill="#FAA51D" stroke="#000000" stroke-width="1.2" d="M33.123,179.125c-0.1,0-0.199-0.002-0.3-0.006l-12.482-0.49&#xD;&#xA;&#x9;c-3.252-0.128-6.05-2.338-6.928-5.472l-3.229-11.532c-0.557-1.988-0.269-4.119,0.795-5.889s2.812-3.021,4.829-3.462l30.665-6.686&#xD;&#xA;&#x9;l19.339-12.552c3.475-2.255,8.119-1.268,10.374,2.208c2.255,3.475,1.267,8.119-2.208,10.374L53.49,158.916&#xD;&#xA;&#x9;c-0.759,0.493-1.601,0.844-2.485,1.037l-18.922,4.125l1.329,0.053c4.139,0.162,7.362,3.649,7.2,7.788&#xD;&#xA;&#x9;C40.453,175.958,37.129,179.125,33.123,179.125L33.123,179.125z"/>
    <path id="ID0.26425604708492756_1_" fill="#FAA51D" stroke="#231F20" stroke-width="1.2" d="M82.394,141.586&#xD;&#xA;&#x9;c2.185-1.678,4.408-4.418,7.267-8.668c2.383-3.543,4.965-10.257,4.965-10.257c1.608-4.636,3.557-12.093-3.498-13.417&#xD;&#xA;&#x9;c-2.855-0.535-7.501-0.18-14.104-1.427c-6.607-1.253-12.501-4.638-17.501,4.106c-4.998,8.748-17.636,15.209-1.942,30.458&#xD;&#xA;&#x9;L82.394,141.586z"/>
    <path fill="#FAA51D" stroke="#000000" stroke-width="1.2" d="M101.214,181.705c-2.698,0-5.272-1.463-6.608-3.953l-10.424-19.415&#xD;&#xA;&#x9;l-22.03-13.094c-3.561-2.116-4.731-6.719-2.615-10.279s6.718-4.731,10.279-2.615l23.821,14.158c1.172,0.696,2.131,1.699,2.775,2.899&#xD;&#xA;&#x9;l8.395,15.635l17.281-5.931c3.916-1.344,8.184,0.741,9.529,4.659c1.344,3.918-0.742,8.184-4.66,9.528l-23.31,8&#xD;&#xA;&#x9;C102.846,181.573,102.023,181.705,101.214,181.705L101.214,181.705z"/>
    <path id="ID0.203311821911484_1_" fill="#FFFFFF" d="M90.669,129.49c0,0,4.542-4.892-4.54-9.778&#xD;&#xA;&#x9;c-9.082-4.886-13.265-0.031-16.07,2.797c-4.862,4.883,6.331,12.158,6.331,12.158l5.841,5.892c0,0,3.195-3.028,4.596-5.478&#xD;&#xA;&#x9;C88.432,132.848,90.669,129.49,90.669,129.49"/>
    <ellipse transform="matrix(0.7127 0.7015 -0.7015 0.7127 114.4191 -6.3472)" fill="#FAA51D" cx="64.958" cy="136.497" rx="9.811" ry="8.535"/>
    <path fill="#FAA51D" stroke="#000000" stroke-width="1.2" d="M39.238,140.295c-0.048,0-0.096,0-0.144-0.002&#xD;&#xA;&#x9;c-3.589-0.077-6.435-3.05-6.357-6.639l0.415-19.13c0.073-3.34,2.665-6.081,5.996-6.34l23.085-1.791&#xD;&#xA;&#x9;c3.594-0.279,6.707,2.398,6.983,5.978c0.278,3.579-2.398,6.706-5.978,6.983l-17.217,1.336l-0.287,13.245&#xD;&#xA;&#x9;C45.657,137.477,42.762,140.295,39.238,140.295L39.238,140.295z"/>
  </g>
</svg>