<svg version="1.1" x="0px" y="0px" width="800px" height="600px" viewBox="-320.165 -209.796 800 600" enable-background="new -320.165 -209.796 800 600" xml:space="preserve" xmlns="http://www.w3.org/2000/svg" xmlns:xlink="http://www.w3.org/1999/xlink" xmlns:a="http://ns.adobe.com/AdobeSVGViewerExtensions/3.0/">
  <defs/>
  <g>
    <path fill="#FAA51D" stroke="#000000" stroke-width="1.2" d="M107.608,124.875c-0.252,0-0.505-0.015-0.757-0.044l-22.002-2.579&#xD;&#xA;&#x9;c-3.565-0.418-6.117-3.647-5.699-7.213c0.418-3.566,3.655-6.124,7.213-5.699l19.854,2.328l16.667-9.666&#xD;&#xA;&#x9;c3.105-1.799,7.083-0.743,8.884,2.362s0.743,7.083-2.362,8.884l-18.537,10.75C109.875,124.574,108.749,124.875,107.608,124.875&#xD;&#xA;&#x9;L107.608,124.875z"/>
    <path id="ID0.4675603983923793_1_" fill="#FAA51D" stroke="#231F20" stroke-width="1.2" d="M90.659,16.803&#xD;&#xA;&#x9;c-2.832-0.263-8.735-0.581-11.986-0.425c-8.694,0.414-16.962,3.545-16.962,3.545L37.771,4.3l4.109,34.768&#xD;&#xA;&#x9;c1.188-1.439-19.41,23.545-6.397,44.546c13.021,21.012,40.886,30.375,75.374,23.523c34.49-6.857,42.717-26.722,40.432-37.23&#xD;&#xA;&#x9;c-2.284-10.508-15.304-14.387-15.304-14.387s-0.165-8.238-6.12-18.334c-3.542-6.01-15.352-14.787-15.352-14.787l-5.258-21.243&#xD;&#xA;&#x9;L95.552,14.404L90.659,16.803L90.659,16.803z"/>
    <path id="ID0.876089540310204_1_" fill="#FFFFFF" d="M134.261,55.255l-4.564-3.795l-16.762,4.893c0,0,0,6.288-8.03,8.03&#xD;&#xA;&#x9;c-8.036,1.75-20.616-4.187-20.616-4.187l-14.316,6.284c0,0-15.516,1.705-16.07,11.182c-1.238,21.062,24.604,29.842,34.396,30.401&#xD;&#xA;&#x9;c5.343,0.308,15.144-0.622,22.577-2.099c32.645-5.947,41.469-25.596,39.188-36.107c-2.284-10.508-14.672-13.232-14.672-13.232&#xD;&#xA;&#x9;L134.261,55.255L134.261,55.255z"/>
    <path id="ID0.44282719027251005_1_" fill="none" stroke="#231F20" stroke-width="1.2" d="M13.357,75.647&#xD;&#xA;&#x9;c0,0,7.553,0.688,10.986,0.493c3.43-0.196,10.1-1.079,10.1-1.079"/>
    <path id="ID0.893105489667505_1_" fill="none" stroke="#231F20" stroke-width="1.2" d="M143.89,65.563c0,0,8.365-1.367,12.613-2.85&#xD;&#xA;&#x9;c4.992-1.731,8.354-4.68,8.354-4.68"/>
    <path id="ID0.03574043000116944_1_" fill="none" stroke="#231F20" stroke-width="1.2" d="M34.806,67.839&#xD;&#xA;&#x9;c0,0-4.384-3.269-11.248-6.308c-7.603-3.367-11.778-4.235-11.778-4.235"/>
    <path id="ID0.6674723788164556_1_" fill="none" stroke="#231F20" stroke-width="1.2" d="M144.738,76.506&#xD;&#xA;&#x9;c0,0,5.014,2.029,10.175,2.547c5.095,0.508,8.544,0.202,8.544,0.202"/>
    <path id="ID0.12165586883202195_1_" fill="none" stroke="#000000" stroke-linecap="round" d="M89.999,16.906&#xD;&#xA;&#x9;c5.222,1.287,7.147,2.701,7.147,2.701"/>
    <path id="ID0.178104005753994_1_" fill="none" stroke="#000000" d="M56.066,15.935l11.141,8.014"/>
    <path id="ID0.7735752793960273_1_" fill="#FFFFFF" stroke="#231F20" d="M125.839,37.417c5.377,8.236,5.577,17.638,0.445,20.991&#xD;&#xA;&#x9;c-5.137,3.356-13.656-0.609-19.041-8.851c-5.394-8.238-5.584-17.633-0.448-20.991C111.927,25.214,120.457,29.175,125.839,37.417&#xD;&#xA;&#x9;L125.839,37.417z"/>
    <path id="ID0.19106501014903188_1_" fill="#231F20" d="M124.458,50.578c0,1.985-1.475,3.597-3.311,3.597&#xD;&#xA;&#x9;c-1.826,0-3.315-1.612-3.315-3.597c0-1.986,1.489-3.602,3.315-3.602C122.984,46.976,124.458,48.591,124.458,50.578"/>
    <path id="ID0.06283409334719181_1_" fill="#FFFFFF" stroke="#231F20" d="M81.754,43.4c5.381,8.238,4.815,18.136-1.253,22.095&#xD;&#xA;&#x9;c-6.072,3.971-15.356,0.5-20.735-7.738c-5.384-8.238-4.825-18.132,1.247-22.099C67.087,31.693,76.369,35.158,81.754,43.4&#xD;&#xA;&#x9;L81.754,43.4z"/>
    <path id="ID0.716460831463337_1_" fill="#231F20" d="M78.466,54.227c0,1.988-1.477,3.6-3.313,3.6c-1.824,0-3.314-1.615-3.314-3.6&#xD;&#xA;&#x9;c0-1.985,1.49-3.599,3.314-3.599C76.986,50.628,78.466,52.242,78.466,54.227"/>
    <path id="ID0.5430324394255877_1_" fill="#5E4A42" stroke="#000000" d="M103.636,60.514c3.409,0,8.376-0.521,8.637,1.047&#xD;&#xA;&#x9;c0.264,1.572-3.143,7.729-5.494,7.99c-2.359,0.262-11.264-4.327-11.393-7.207C95.25,59.465,100.49,60.514,103.636,60.514&#xD;&#xA;&#x9;L103.636,60.514z"/>
    <path id="ID0.5547774969600141_1_" fill="none" stroke="#231F20" stroke-width="1.2" d="M79.745,73.956&#xD;&#xA;&#x9;c0,0,19.027,5.616,26.144,7.166c7.113,1.549,19.955,3.098,19.955,3.098s-14.693,18.84-31.865,14.057&#xD;&#xA;&#x9;C76.806,93.5,77.117,82.672,79.745,73.956L79.745,73.956z"/>
    <path fill="#FAA51D" stroke="#000000" stroke-width="1.2" d="M21.732,176.125c-3.515,0.001-6.651-2.481-7.353-6.06l-1.584-8.088&#xD;&#xA;&#x9;l-1.523-8.118c-0.441-2.349,0.264-4.768,1.897-6.511c1.635-1.745,4.007-2.603,6.373-2.319l20.148,2.435l9.359-15.935&#xD;&#xA;&#x9;c2.098-3.572,6.696-4.767,10.265-2.669c3.572,2.098,4.767,6.693,2.669,10.265l-11.848,20.172c-1.511,2.573-4.402,4.005-7.366,3.648&#xD;&#xA;&#x9;l-14.852-1.795l1.182,6.032c0.796,4.064-1.854,8.006-5.919,8.802C22.695,176.08,22.209,176.125,21.732,176.125L21.732,176.125z"/>
    <path id="ID0.7152078151702881_1_" fill="#FAA51D" stroke="#000000" d="M33.533,129.288c-3.979-2.143-8.558-5.263-11.6-10.471&#xD;&#xA;&#x9;c-6.803-11.648-5.322-26.801-13.24-25.304c-7.926,1.498-15.117,24.446,3.884,38.298c6.546,4.777,13.226,6.924,18.692,8.509&#xD;&#xA;&#x9;c1.434,0.409,13.883,3.174,19.935-1.493c6.05-4.669,3.652-7.082,2.499-8.361C52.548,129.186,39.16,132.317,33.533,129.288&#xD;&#xA;&#x9;L33.533,129.288z"/>
    <path id="ID0.4691764716990292_1_" fill="#FFFFFF" d="M9.538,94.276c-3.829-0.04-8.187,7.033-8.388,13.698&#xD;&#xA;&#x9;c-0.205,6.672,1.802,10.271,3.184,13.37c2.096,2.674,0.085-4.61,4.709-6.508c4.61-1.893,10.553,1.609,10.553,1.609&#xD;&#xA;&#x9;s-2.862-8.611-4.423-13.763C13.712,97.756,13.537,94.585,9.538,94.276L9.538,94.276z"/>
    <path id="ID0.26425604708492756_1_" fill="#FAA51D" stroke="#231F20" stroke-width="1.2" d="M79.016,141.586&#xD;&#xA;&#x9;c2.185-1.678,4.408-4.418,7.267-8.668c2.383-3.543,4.965-10.257,4.965-10.257c1.608-4.636,3.557-12.093-3.498-13.417&#xD;&#xA;&#x9;c-2.855-0.535-7.501-0.18-14.104-1.427c-6.607-1.253-12.501-4.638-17.501,4.106c-4.998,8.748-17.636,15.209-1.942,30.458&#xD;&#xA;&#x9;L79.016,141.586z"/>
    <path fill="#FAA51D" stroke="#000000" stroke-width="1.2" d="M113.128,180.204H88.669c-2.082,0-4.07-0.865-5.488-2.389&#xD;&#xA;&#x9;c-1.419-1.523-2.141-3.568-1.993-5.646l1.309-18.334l-22.405-7.975c-3.902-1.389-5.94-5.678-4.551-9.58&#xD;&#xA;&#x9;c1.389-3.902,5.682-5.939,9.58-4.551l27.777,9.887c3.175,1.13,5.206,4.238,4.967,7.6l-1.142,15.987h16.405&#xD;&#xA;&#x9;c4.143,0,7.5,3.357,7.5,7.5S117.271,180.204,113.128,180.204L113.128,180.204z"/>
    <path id="ID0.203311821911484_1_" fill="#FFFFFF" d="M87.292,129.49c0,0,4.542-4.892-4.54-9.778&#xD;&#xA;&#x9;c-9.082-4.886-13.265-0.031-16.07,2.797c-4.862,4.883,6.331,12.158,6.331,12.158l5.841,5.892c0,0,3.195-3.028,4.596-5.478&#xD;&#xA;&#x9;C85.054,132.848,87.292,129.49,87.292,129.49"/>
    <ellipse transform="matrix(0.7127 0.7015 -0.7015 0.7127 113.4486 -3.9779)" fill="#FAA51D" cx="61.58" cy="136.497" rx="9.811" ry="8.535"/>
    <path fill="#FAA51D" stroke="#000000" stroke-width="1.2" d="M30.861,139.297c-0.616,0-1.242-0.089-1.863-0.273&#xD;&#xA;&#x9;c-3.439-1.027-5.396-4.649-4.368-8.089l5.415-18.13c0.77-2.576,3.046-4.412,5.726-4.62l23.085-1.791&#xD;&#xA;&#x9;c3.57-0.283,6.706,2.397,6.983,5.978c0.277,3.579-2.398,6.706-5.978,6.983l-18.637,1.446l-4.138,13.854&#xD;&#xA;&#x9;C36.244,137.475,33.66,139.297,30.861,139.297L30.861,139.297z"/>
  </g>
</svg>