<svg version="1.1" x="0px" y="0px" width="800px" height="600px" viewBox="-320.862 -209.796 800 600" enable-background="new -320.862 -209.796 800 600" xml:space="preserve" xmlns="http://www.w3.org/2000/svg" xmlns:xlink="http://www.w3.org/1999/xlink" xmlns:a="http://ns.adobe.com/AdobeSVGViewerExtensions/3.0/">
  <defs/>
  <g>
    <path fill="#FAA51D" stroke="#000000" stroke-width="1.2" d="M104.91,126.875c-0.484,0-0.972-0.055-1.45-0.164l-20.002-4.579&#xD;&#xA;&#x9;c-3.5-0.801-5.687-4.287-4.886-7.786c0.801-3.5,4.288-5.689,7.786-4.886l17.572,4.022l15.358-8.538&#xD;&#xA;&#x9;c3.138-1.746,7.096-0.615,8.839,2.522c1.745,3.138,0.615,7.095-2.522,8.839l-17.537,9.75&#xD;&#xA;&#x9;C107.096,126.596,106.008,126.875,104.91,126.875L104.91,126.875z"/>
    <path id="ID0.4675603983923793_1_" fill="#FAA51D" stroke="#231F20" stroke-width="1.2" d="M89.961,16.803&#xD;&#xA;&#x9;c-2.832-0.263-8.735-0.581-11.986-0.425c-8.694,0.414-16.962,3.545-16.962,3.545L37.073,4.3l4.109,34.768&#xD;&#xA;&#x9;c1.188-1.439-19.41,23.545-6.397,44.546c13.021,21.012,40.886,30.375,75.374,23.523c34.49-6.857,42.717-26.722,40.432-37.23&#xD;&#xA;&#x9;c-2.284-10.508-15.304-14.387-15.304-14.387s-0.165-8.238-6.12-18.334c-3.542-6.01-15.352-14.787-15.352-14.787l-5.258-21.243&#xD;&#xA;&#x9;L94.854,14.404L89.961,16.803L89.961,16.803z"/>
    <path id="ID0.876089540310204_1_" fill="#FFFFFF" d="M133.563,55.255l-4.564-3.795l-16.762,4.893c0,0,0,6.288-8.03,8.03&#xD;&#xA;&#x9;c-8.036,1.75-20.616-4.187-20.616-4.187l-14.316,6.284c0,0-15.516,1.705-16.07,11.182c-1.238,21.062,24.604,29.842,34.396,30.401&#xD;&#xA;&#x9;c5.343,0.308,15.144-0.622,22.577-2.099c32.645-5.947,41.469-25.596,39.188-36.107c-2.284-10.508-14.672-13.232-14.672-13.232&#xD;&#xA;&#x9;L133.563,55.255L133.563,55.255z"/>
    <path id="ID0.44282719027251005_1_" fill="none" stroke="#231F20" stroke-width="1.2" d="M12.659,75.647&#xD;&#xA;&#x9;c0,0,7.553,0.688,10.986,0.493c3.43-0.196,10.1-1.079,10.1-1.079"/>
    <path id="ID0.893105489667505_1_" fill="none" stroke="#231F20" stroke-width="1.2" d="M143.192,65.563c0,0,8.365-1.367,12.613-2.85&#xD;&#xA;&#x9;c4.992-1.731,8.354-4.68,8.354-4.68"/>
    <path id="ID0.03574043000116944_1_" fill="none" stroke="#231F20" stroke-width="1.2" d="M34.108,67.839&#xD;&#xA;&#x9;c0,0-4.384-3.269-11.248-6.308c-7.603-3.367-11.778-4.235-11.778-4.235"/>
    <path id="ID0.6674723788164556_1_" fill="none" stroke="#231F20" stroke-width="1.2" d="M144.04,76.506&#xD;&#xA;&#x9;c0,0,5.014,2.029,10.175,2.547c5.095,0.508,8.544,0.202,8.544,0.202"/>
    <path id="ID0.12165586883202195_1_" fill="none" stroke="#000000" stroke-linecap="round" d="M89.301,16.906&#xD;&#xA;&#x9;c5.222,1.287,7.147,2.701,7.147,2.701"/>
    <path id="ID0.178104005753994_1_" fill="none" stroke="#000000" d="M55.368,15.935l11.141,8.014"/>
    <path id="ID0.7735752793960273_1_" fill="#FFFFFF" stroke="#231F20" d="M125.142,37.417c5.377,8.236,5.577,17.638,0.445,20.991&#xD;&#xA;&#x9;c-5.137,3.356-13.656-0.609-19.041-8.851c-5.394-8.238-5.584-17.633-0.448-20.991C111.229,25.214,119.759,29.175,125.142,37.417&#xD;&#xA;&#x9;L125.142,37.417z"/>
    <path id="ID0.19106501014903188_1_" fill="#231F20" d="M123.761,50.578c0,1.985-1.475,3.597-3.311,3.597&#xD;&#xA;&#x9;c-1.826,0-3.315-1.612-3.315-3.597c0-1.986,1.489-3.602,3.315-3.602C122.286,46.976,123.761,48.591,123.761,50.578"/>
    <path id="ID0.06283409334719181_1_" fill="#FFFFFF" stroke="#231F20" d="M81.057,43.4c5.381,8.238,4.815,18.136-1.253,22.095&#xD;&#xA;&#x9;c-6.072,3.971-15.356,0.5-20.735-7.738c-5.384-8.238-4.825-18.132,1.247-22.099C66.39,31.693,75.671,35.158,81.057,43.4L81.057,43.4&#xD;&#xA;&#x9;z"/>
    <path id="ID0.716460831463337_1_" fill="#231F20" d="M77.769,54.227c0,1.988-1.477,3.6-3.313,3.6c-1.824,0-3.314-1.615-3.314-3.6&#xD;&#xA;&#x9;c0-1.985,1.49-3.599,3.314-3.599C76.288,50.628,77.769,52.242,77.769,54.227"/>
    <path id="ID0.5430324394255877_1_" fill="#5E4A42" stroke="#000000" d="M102.938,60.514c3.409,0,8.376-0.521,8.637,1.047&#xD;&#xA;&#x9;c0.264,1.572-3.143,7.729-5.494,7.99c-2.359,0.262-11.264-4.327-11.393-7.207C94.553,59.465,99.792,60.514,102.938,60.514&#xD;&#xA;&#x9;L102.938,60.514z"/>
    <path id="ID0.5547774969600141_1_" fill="none" stroke="#231F20" stroke-width="1.2" d="M79.047,73.956&#xD;&#xA;&#x9;c0,0,19.027,5.616,26.144,7.166c7.113,1.549,19.955,3.098,19.955,3.098s-14.693,18.84-31.865,14.057&#xD;&#xA;&#x9;C76.108,93.5,76.419,82.672,79.047,73.956L79.047,73.956z"/>
    <path fill="#FAA51D" stroke="#000000" stroke-width="1.2" d="M38.037,173.125c-1.647,0-3.306-0.54-4.69-1.651l-7.584-6.088&#xD;&#xA;&#x9;c-0.291-0.233-0.564-0.489-0.817-0.764l-6.513-7.061c-1.991-2.159-2.539-5.281-1.402-7.989c1.138-2.708,3.751-4.503,6.687-4.592&#xD;&#xA;&#x9;l24.219-0.739l-0.598-8.38c-0.294-4.132,2.816-7.72,6.948-8.015c4.145-0.301,7.72,2.817,8.015,6.948l1.152,16.172&#xD;&#xA;&#x9;c0.145,2.037-0.547,4.045-1.916,5.561c-1.368,1.516-3.296,2.407-5.337,2.469l-13.906,0.425l0.443,0.355&#xD;&#xA;&#x9;c3.229,2.593,3.746,7.313,1.153,10.544C42.409,172.165,40.233,173.125,38.037,173.125L38.037,173.125z"/>
    <path id="ID0.7152078151702881_1_" fill="#FAA51D" stroke="#000000" d="M32.103,128.657c-3.816-2.421-8.162-5.858-10.826-11.27&#xD;&#xA;&#x9;c-5.957-12.103-3.403-27.111-11.408-26.181c-8.012,0.931-16.816,23.31,1.151,38.477c6.19,5.231,12.7,7.847,18.04,9.816&#xD;&#xA;&#x9;c1.401,0.511,13.622,4.153,19.99-0.072c6.367-4.227,4.146-6.804,3.088-8.162C51.077,129.907,37.499,132.078,32.103,128.657&#xD;&#xA;&#x9;L32.103,128.657z"/>
    <path id="ID0.4691764716990292_1_" fill="#FFFFFF" d="M10.657,92.027c-3.816-0.312-8.666,6.434-9.341,13.067&#xD;&#xA;&#x9;c-0.679,6.641,1.067,10.374,2.226,13.563c1.9,2.816,0.412-4.593,5.159-6.156c4.733-1.561,10.412,2.355,10.412,2.355&#xD;&#xA;&#x9;s-2.243-8.793-3.434-14.042C14.574,95.795,14.624,92.621,10.657,92.027L10.657,92.027z"/>
    <path id="ID0.26425604708492756_1_" fill="#FAA51D" stroke="#231F20" stroke-width="1.2" d="M78.318,141.586&#xD;&#xA;&#x9;c2.185-1.678,4.408-4.418,7.267-8.668c2.383-3.543,4.965-10.257,4.965-10.257c1.608-4.636,3.557-12.093-3.498-13.417&#xD;&#xA;&#x9;c-2.855-0.535-7.501-0.18-14.104-1.427c-6.607-1.253-12.501-4.638-17.501,4.106c-4.998,8.748-17.636,15.209-1.942,30.458&#xD;&#xA;&#x9;L78.318,141.586z"/>
    <path fill="#FAA51D" stroke="#000000" stroke-width="1.2" d="M101.431,180.204H76.972c-2.38,0-4.618-1.129-6.032-3.044&#xD;&#xA;&#x9;c-1.414-1.914-1.836-4.385-1.137-6.66l5.016-16.316l-16.44-8.771c-3.654-1.949-5.037-6.492-3.087-10.147&#xD;&#xA;&#x9;c1.949-3.653,6.492-5.037,10.147-3.087l21.896,11.681c3.168,1.69,4.693,5.389,3.639,8.821l-3.85,12.523h14.307&#xD;&#xA;&#x9;c4.143,0,7.5,3.357,7.5,7.5S105.573,180.204,101.431,180.204L101.431,180.204z"/>
    <path id="ID0.203311821911484_1_" fill="#FFFFFF" d="M86.594,129.49c0,0,4.542-4.892-4.54-9.778&#xD;&#xA;&#x9;c-9.082-4.886-13.265-0.031-16.07,2.797c-4.862,4.883,6.331,12.158,6.331,12.158l5.841,5.892c0,0,3.195-3.028,4.596-5.478&#xD;&#xA;&#x9;C84.356,132.848,86.594,129.49,86.594,129.49"/>
    <ellipse transform="matrix(0.7127 0.7015 -0.7015 0.7127 113.2481 -3.4884)" fill="#FAA51D" cx="60.882" cy="136.497" rx="9.811" ry="8.535"/>
    <path fill="#FAA51D" stroke="#000000" stroke-width="1.2" d="M24.155,136.295c-1.363,0-2.737-0.427-3.91-1.312&#xD;&#xA;&#x9;c-2.865-2.162-3.436-6.237-1.273-9.104l11.415-15.13c1.122-1.487,2.828-2.421,4.686-2.565l23.085-1.791&#xD;&#xA;&#x9;c3.573-0.283,6.705,2.397,6.983,5.978c0.277,3.579-2.398,6.706-5.978,6.983l-20.164,1.564l-9.65,12.791&#xD;&#xA;&#x9;C28.071,135.404,26.125,136.295,24.155,136.295L24.155,136.295z"/>
  </g>
</svg>