<svg version="1.1" x="0px" y="0px" width="800px" height="600px" viewBox="-317.592 -207.796 800 600" enable-background="new -317.592 -207.796 800 600" xml:space="preserve" xmlns="http://www.w3.org/2000/svg" xmlns:xlink="http://www.w3.org/1999/xlink" xmlns:a="http://ns.adobe.com/AdobeSVGViewerExtensions/3.0/">
  <defs/>
  <g>
    <path fill="#FAA51D" stroke="#000000" stroke-width="1.2" d="M104.989,149.884c-0.581,0-1.17-0.078-1.757-0.243l-19.953-5.587&#xD;&#xA;&#x9;c-3.135-0.877-5.137-3.938-4.684-7.162l3.246-23.119c0.499-3.556,3.793-6.028,7.34-5.533c3.556,0.499,6.032,3.785,5.533,7.34&#xD;&#xA;&#x9;l-2.455,17.489l14.479,4.055c3.457,0.968,5.475,4.555,4.506,8.012C110.44,148.005,107.831,149.884,104.989,149.884L104.989,149.884z&#xD;&#xA;&#x9;"/>
    <g>
      <polyline fill="none" stroke="#000000" stroke-width="15" stroke-linecap="round" stroke-linejoin="round" points="79.201,110.391 &#xD;&#xA;&#x9;&#x9;71.622,129.459 78.58,148.28 &#x9;"/>
      <polyline fill="none" stroke="#FAA51D" stroke-width="13" stroke-linecap="round" stroke-linejoin="round" points="79.201,110.391 &#xD;&#xA;&#x9;&#x9;71.622,129.459 78.58,148.28 &#x9;"/>
    </g>
    <path id="ID0.4675603983923793_1_" fill="#FAA51D" stroke="#231F20" stroke-width="1.2" d="M94.231,16.803&#xD;&#xA;&#x9;c-2.832-0.263-8.735-0.581-11.986-0.425c-8.694,0.414-16.962,3.545-16.962,3.545L41.343,4.3l4.109,34.768&#xD;&#xA;&#x9;c1.188-1.439-19.41,23.545-6.397,44.546c13.021,21.012,40.886,30.375,75.374,23.523c34.49-6.857,42.717-26.722,40.432-37.23&#xD;&#xA;&#x9;c-2.284-10.508-15.304-14.387-15.304-14.387s-0.165-8.238-6.12-18.334c-3.542-6.01-15.352-14.787-15.352-14.787l-5.258-21.243&#xD;&#xA;&#x9;L99.125,14.404L94.231,16.803L94.231,16.803z"/>
    <path id="ID0.876089540310204_1_" fill="#FFFFFF" d="M137.833,55.255l-4.564-3.795l-16.762,4.893c0,0,0,6.288-8.03,8.03&#xD;&#xA;&#x9;c-8.036,1.75-20.616-4.187-20.616-4.187l-14.316,6.284c0,0-15.516,1.705-16.07,11.182c-1.238,21.062,24.604,29.842,34.396,30.401&#xD;&#xA;&#x9;c5.343,0.308,15.144-0.622,22.577-2.099c32.645-5.947,41.469-25.596,39.188-36.107c-2.284-10.508-14.672-13.232-14.672-13.232&#xD;&#xA;&#x9;L137.833,55.255L137.833,55.255z"/>
    <path id="ID0.44282719027251005_1_" fill="none" stroke="#231F20" stroke-width="1.2" d="M16.929,75.647&#xD;&#xA;&#x9;c0,0,7.553,0.688,10.986,0.493c3.43-0.196,10.1-1.079,10.1-1.079"/>
    <path id="ID0.893105489667505_1_" fill="none" stroke="#231F20" stroke-width="1.2" d="M147.462,65.563c0,0,8.365-1.367,12.613-2.85&#xD;&#xA;&#x9;c4.992-1.731,8.354-4.68,8.354-4.68"/>
    <path id="ID0.03574043000116944_1_" fill="none" stroke="#231F20" stroke-width="1.2" d="M38.378,67.839&#xD;&#xA;&#x9;c0,0-4.384-3.269-11.248-6.308c-7.603-3.367-11.778-4.235-11.778-4.235"/>
    <path id="ID0.6674723788164556_1_" fill="none" stroke="#231F20" stroke-width="1.2" d="M148.31,76.506&#xD;&#xA;&#x9;c0,0,5.014,2.029,10.175,2.547c5.095,0.508,8.544,0.202,8.544,0.202"/>
    <path id="ID0.12165586883202195_1_" fill="none" stroke="#000000" stroke-linecap="round" d="M93.571,16.906&#xD;&#xA;&#x9;c5.222,1.287,7.147,2.701,7.147,2.701"/>
    <path id="ID0.178104005753994_1_" fill="none" stroke="#000000" d="M59.638,15.935l11.141,8.014"/>
    <path id="ID0.7735752793960273_1_" fill="#FFFFFF" stroke="#231F20" d="M129.412,37.417c5.377,8.236,5.577,17.638,0.445,20.991&#xD;&#xA;&#x9;c-5.137,3.356-13.656-0.609-19.041-8.851c-5.394-8.238-5.584-17.633-0.448-20.991C115.5,25.214,124.029,29.175,129.412,37.417&#xD;&#xA;&#x9;L129.412,37.417z"/>
    <path id="ID0.19106501014903188_1_" fill="#231F20" d="M128.031,50.578c0,1.985-1.475,3.597-3.311,3.597&#xD;&#xA;&#x9;c-1.826,0-3.315-1.612-3.315-3.597c0-1.986,1.489-3.602,3.315-3.602C126.556,46.976,128.031,48.591,128.031,50.578"/>
    <path id="ID0.06283409334719181_1_" fill="#FFFFFF" stroke="#231F20" d="M85.327,43.4c5.381,8.238,4.815,18.136-1.253,22.095&#xD;&#xA;&#x9;c-6.072,3.971-15.356,0.5-20.735-7.738c-5.384-8.238-4.825-18.132,1.247-22.099C70.66,31.693,79.941,35.158,85.327,43.4L85.327,43.4&#xD;&#xA;&#x9;z"/>
    <path id="ID0.716460831463337_1_" fill="#231F20" d="M82.039,54.227c0,1.988-1.477,3.6-3.313,3.6c-1.824,0-3.314-1.615-3.314-3.6&#xD;&#xA;&#x9;c0-1.985,1.49-3.599,3.314-3.599C80.558,50.628,82.039,52.242,82.039,54.227"/>
    <path id="ID0.5430324394255877_1_" fill="#5E4A42" stroke="#000000" d="M107.208,60.514c3.409,0,8.376-0.521,8.637,1.047&#xD;&#xA;&#x9;c0.264,1.572-3.143,7.729-5.494,7.99c-2.359,0.262-11.264-4.327-11.393-7.207C98.823,59.465,104.062,60.514,107.208,60.514&#xD;&#xA;&#x9;L107.208,60.514z"/>
    <path id="ID0.5547774969600141_1_" fill="none" stroke="#231F20" stroke-width="1.2" d="M83.317,73.956&#xD;&#xA;&#x9;c0,0,19.027,5.616,26.144,7.166c7.113,1.549,19.955,3.098,19.955,3.098s-14.693,18.84-31.865,14.057&#xD;&#xA;&#x9;C80.378,93.5,80.689,82.672,83.317,73.956L83.317,73.956z"/>
    <path fill="#FAA51D" stroke="#000000" stroke-width="1.2" d="M54.314,176.125c-2.028,0-4.05-0.817-5.529-2.431l-12.082-13.133&#xD;&#xA;&#x9;c-2.074-2.249-2.575-5.532-1.265-8.297s4.176-4.462,7.223-4.274l25.269,1.502l-1.305-13.439c-0.4-4.123,2.617-7.789,6.74-8.189&#xD;&#xA;&#x9;c4.127-0.413,7.789,2.618,8.189,6.74l2.152,22.172c0.212,2.183-0.542,4.349-2.063,5.928c-1.521,1.578-3.643,2.419-5.847,2.283&#xD;&#xA;&#x9;l-15.53-0.923c2.343,3.051,2.004,7.439-0.885,10.089C57.942,175.472,56.125,176.125,54.314,176.125L54.314,176.125z"/>
    <path id="ID0.7152078151702881_1_" fill="#FAA51D" stroke="#000000" d="M36.685,135.244c-4.275-1.463-9.304-3.792-13.158-8.431&#xD;&#xA;&#x9;c-8.616-10.378-9.637-25.568-17.204-22.795c-7.572,2.775-10.91,26.591,10.102,37.145c7.24,3.643,14.182,4.666,19.833,5.335&#xD;&#xA;&#x9;c1.482,0.169,14.215,0.858,19.422-4.737c5.204-5.596,2.443-7.583,1.097-8.656C55.427,132.031,42.731,137.311,36.685,135.244&#xD;&#xA;&#x9;L36.685,135.244z"/>
    <path id="ID0.4691764716990292_1_" fill="#FFFFFF" d="M7.282,104.632c-3.783,0.587-6.924,8.278-6.032,14.886&#xD;&#xA;&#x9;c0.89,6.616,3.459,9.839,5.33,12.669c2.505,2.295-0.672-4.563,3.58-7.19c4.238-2.622,10.674-0.141,10.674-0.141&#xD;&#xA;&#x9;s-4.233-8.026-6.616-12.852C11.97,107.382,11.278,104.283,7.282,104.632L7.282,104.632z"/>
    <path id="ID0.26425604708492756_1_" fill="#FAA51D" stroke="#231F20" stroke-width="1.2" d="M82.588,141.586&#xD;&#xA;&#x9;c2.185-1.678,4.408-4.418,7.267-8.668c2.383-3.543,4.965-10.257,4.965-10.257c1.608-4.636,3.557-12.093-3.498-13.417&#xD;&#xA;&#x9;c-2.855-0.535-7.501-0.18-14.104-1.427c-6.607-1.253-12.501-4.638-17.501,4.106c-4.998,8.748-17.636,15.209-1.942,30.458&#xD;&#xA;&#x9;L82.588,141.586z"/>
    <path fill="#FAA51D" stroke="#000000" stroke-width="1.2" d="M88.701,184.204H64.242c-2.706,0-5.203-1.458-6.532-3.815&#xD;&#xA;&#x9;c-1.33-2.357-1.286-5.249,0.114-7.564l10.067-16.653l-10.476-12.574c-2.651-3.183-2.221-7.912,0.962-10.563&#xD;&#xA;&#x9;c3.184-2.651,7.912-2.221,10.563,0.962l13.896,16.681c2.047,2.458,2.311,5.943,0.655,8.681l-5.953,9.848h11.161&#xD;&#xA;&#x9;c4.143,0,7.5,3.357,7.5,7.5S92.843,184.204,88.701,184.204L88.701,184.204z"/>
    <path id="ID0.203311821911484_1_" fill="#FFFFFF" d="M90.864,129.49c0,0,4.542-4.892-4.54-9.778&#xD;&#xA;&#x9;c-9.082-4.886-13.265-0.031-16.07,2.797c-4.862,4.883,6.331,12.158,6.331,12.158l5.841,5.892c0,0,3.195-3.028,4.596-5.478&#xD;&#xA;&#x9;C88.626,132.848,90.864,129.49,90.864,129.49"/>
    <ellipse transform="matrix(0.7127 0.7015 -0.7015 0.7127 111.6353 -3.551)" fill="#FAA51D" cx="60.152" cy="134.497" rx="9.811" ry="8.535"/>
    <path fill="#FAA51D" stroke="#000000" stroke-width="1.2" d="M50.145,152.498c-2.885,0-5.519-1.935-6.284-4.854l-4.888-18.656&#xD;&#xA;&#x9;c-0.702-2.681,0.372-5.512,2.676-7.052l18.95-12.666c2.987-1.994,7.021-1.191,9.017,1.792c1.994,2.985,1.192,7.021-1.792,9.017&#xD;&#xA;&#x9;L52.722,130.17l3.715,14.178c0.909,3.473-1.168,7.025-4.641,7.936C51.244,152.428,50.69,152.498,50.145,152.498L50.145,152.498z"/>
  </g>
</svg>